<svg width="24" height="24" viewBox="0 0 24 24" fill="none" xmlns="http://www.w3.org/2000/svg">
<path d="M17.625 10.25C19.489 10.25 21 8.73896 21 6.875C21 5.01104 19.489 3.5 17.625 3.5C15.761 3.5 14.25 5.01104 14.25 6.875C14.25 8.73896 15.761 10.25 17.625 10.25Z" stroke="#555555" stroke-width="1.5" stroke-linecap="round" stroke-linejoin="round"/>
<path d="M6.375 21.5C8.23896 21.5 9.75 19.989 9.75 18.125C9.75 16.261 8.23896 14.75 6.375 14.75C4.51104 14.75 3 16.261 3 18.125C3 19.989 4.51104 21.5 6.375 21.5Z" stroke="#555555" stroke-width="1.5" stroke-linecap="round" stroke-linejoin="round"/>
<path d="M14.25 14.75H21V20.375C21 20.6734 20.8815 20.9595 20.6705 21.1705C20.4595 21.3815 20.1734 21.5 19.875 21.5H15.375C15.0766 21.5 14.7905 21.3815 14.5795 21.1705C14.3685 20.9595 14.25 20.6734 14.25 20.375V14.75ZM3 3.5H9.75V9.125C9.75 9.42337 9.63147 9.70952 9.42049 9.92049C9.20952 10.1315 8.92337 10.25 8.625 10.25H4.125C3.82663 10.25 3.54048 10.1315 3.32951 9.92049C3.11853 9.70952 3 9.42337 3 9.125V3.5Z" stroke="#555555" stroke-width="1.5" stroke-linecap="round" stroke-linejoin="round"/>
</svg>
