<svg width="20" height="19" viewBox="0 0 20 19" fill="none" xmlns="http://www.w3.org/2000/svg">
<path d="M3.34961 16.6703L4.87357 15.4512L4.88478 15.4426C5.20249 15.1884 5.36281 15.0601 5.54168 14.9688C5.70216 14.8868 5.87328 14.8271 6.0498 14.7908C6.24877 14.75 6.45603 14.75 6.87207 14.75H15.5531C16.671 14.75 17.2306 14.75 17.658 14.5322C18.0343 14.3405 18.3405 14.0342 18.5322 13.6579C18.75 13.2305 18.75 12.6715 18.75 11.5536V3.94691C18.75 2.82899 18.75 2.2692 18.5322 1.8418C18.3405 1.46547 18.0337 1.15973 17.6574 0.967987C17.2296 0.75 16.6703 0.75 15.5502 0.75H3.9502C2.83009 0.75 2.26962 0.75 1.8418 0.967987C1.46547 1.15973 1.15973 1.46547 0.967987 1.8418C0.75 2.26962 0.75 2.83009 0.75 3.9502V15.4212C0.75 16.4869 0.75 17.0196 0.968457 17.2933C1.15845 17.5313 1.44644 17.6698 1.75098 17.6695C2.10115 17.6691 2.51744 17.3361 3.34961 16.6703Z" stroke="#555555" stroke-width="1.5" stroke-linecap="round" stroke-linejoin="round"/>
</svg>
