<svg width="44" height="44" viewBox="0 0 44 44" fill="none" xmlns="http://www.w3.org/2000/svg">
<rect width="44" height="44" rx="22" fill="url(#paint0_linear_1445_1720)"/>
<mask id="path-2-inside-1_1445_1720" fill="white">
<path d="M30.2273 24.2287C30.2431 24.0286 30.1838 23.83 30.0622 23.6752C29.9405 23.5204 29.7661 23.4218 29.5762 23.4003C29.3863 23.3789 29.1959 23.4364 29.0458 23.5605C28.8957 23.6846 28.7977 23.8656 28.7727 24.0646L30.2273 24.2287ZM23.0615 30.4615H20.9385V32H23.0615V30.4615ZM15.2273 24.0646L15.0488 22.3159L13.5941 22.48L13.7727 24.2287L15.2273 24.0646ZM19.478 21.281L21.2244 17.9908L19.9463 17.241L18.2 20.5323L19.478 21.281ZM22.7756 17.9908L24.522 21.281L25.8 20.5323L24.0537 17.241L22.7756 17.9908ZM24.522 21.281C24.68 21.5785 24.8244 21.8554 24.9659 22.0656C25.1112 22.2821 25.3073 22.5221 25.6107 22.6626L26.201 21.2544C26.2556 21.279 26.2459 21.3056 26.1629 21.1815C26.0326 20.9711 25.9115 20.7544 25.8 20.5323L24.522 21.281ZM26.8205 20.681C26.5688 20.9456 26.4185 21.1015 26.3005 21.201C26.1883 21.2964 26.1863 21.2687 26.2449 21.2605L26.4449 22.7846C26.7727 22.7364 27.0254 22.5631 27.2215 22.3969C27.4117 22.2349 27.6234 22.0113 27.8537 21.7713L26.8205 20.681ZM25.6107 22.6626C25.8732 22.7836 26.162 22.8256 26.4449 22.7846L26.2449 21.2605C26.23 21.262 26.215 21.2599 26.201 21.2544L25.6107 22.6626ZM16.1473 21.7703C16.3766 22.0113 16.5883 22.2349 16.7785 22.3959C16.9746 22.5641 17.2273 22.7364 17.5551 22.7846L17.7551 21.2605C17.8137 21.2687 17.8117 21.2964 17.6995 21.201C17.5187 21.0362 17.3452 20.8626 17.1795 20.681L16.1473 21.7703ZM18.2 20.5323C18.0882 20.7545 17.9668 20.9711 17.8361 21.1815C17.7541 21.3046 17.7444 21.279 17.799 21.2533L18.3883 22.6626C18.6907 22.5221 18.8898 22.2831 19.0341 22.0656C19.1746 21.8544 19.32 21.5785 19.478 21.281L18.2 20.5323ZM17.5551 22.7846C17.838 22.8256 18.1268 22.7846 18.3883 22.6626L17.799 21.2533C17.785 21.2589 17.77 21.262 17.7551 21.2605L17.5551 22.7846ZM20.9385 30.4615C19.5356 30.4615 18.5532 30.4605 17.8039 30.359C17.0741 30.2615 16.6624 30.079 16.3532 29.7887L15.3776 30.9354C15.9922 31.5138 16.7337 31.7662 17.6176 31.8851C18.482 32.001 19.5746 32 20.9385 32V30.4615ZM13.7727 24.2287C13.9171 25.6421 14.0322 27.0256 14.2273 28.1477C14.3259 28.7138 14.4507 29.2472 14.6224 29.7097C14.7932 30.1692 15.0293 30.6072 15.3776 30.9354L16.3532 29.7887C16.24 29.6821 16.1112 29.4872 15.9854 29.1497C15.8618 28.8161 15.7558 28.3897 15.6673 27.8708C15.4839 26.8226 15.3766 25.5323 15.2273 24.0646L13.7727 24.2287ZM28.7727 24.0646C28.6224 25.5323 28.5151 26.8226 28.3337 27.8697C28.2439 28.3894 28.1376 28.8161 28.0146 29.1497C27.8888 29.4872 27.76 29.6831 27.6468 29.7887L28.6224 30.9354C28.9707 30.6072 29.2068 30.1692 29.3776 29.7097C29.5493 29.2472 29.6741 28.7138 29.7727 28.1477C29.9678 27.0256 30.0829 25.641 30.2273 24.2287L28.7727 24.0646ZM23.0615 32C24.4254 32 25.518 32.001 26.3824 31.8851C27.2673 31.7662 28.0078 31.5138 28.6224 30.9354L27.6468 29.7887C27.3376 30.079 26.9259 30.2605 26.1961 30.359C25.4468 30.4605 24.4644 30.4615 23.0615 30.4615V32ZM20.7805 14.8205C20.7805 14.1128 21.3268 13.5385 22 13.5385V12C21.2884 12 20.606 12.2972 20.1029 12.8261C19.5997 13.3551 19.3171 14.0725 19.3171 14.8205H20.7805ZM22 13.5385C22.6732 13.5385 23.2195 14.1128 23.2195 14.8205H24.6829C24.6829 14.0725 24.4003 13.3551 23.8971 12.8261C23.394 12.2972 22.7116 12 22 12V13.5385ZM30.5366 18.9231C30.5366 19.1271 30.4595 19.3227 30.3223 19.467C30.1851 19.6113 29.9989 19.6923 29.8049 19.6923V21.2308C30.3871 21.2308 30.9454 20.9876 31.3571 20.5549C31.7687 20.1221 32 19.5351 32 18.9231H30.5366ZM29.0732 18.9231C29.0732 18.7191 29.1503 18.5234 29.2875 18.3791C29.4247 18.2349 29.6108 18.1538 29.8049 18.1538V16.6154C29.2227 16.6154 28.6644 16.8585 28.2527 17.2913C27.841 17.7241 27.6098 18.311 27.6098 18.9231H29.0732ZM29.8049 18.1538C29.9989 18.1538 30.1851 18.2349 30.3223 18.3791C30.4595 18.5234 30.5366 18.7191 30.5366 18.9231H32C32 18.311 31.7687 17.7241 31.3571 17.2913C30.9454 16.8585 30.3871 16.6154 29.8049 16.6154V18.1538ZM14.1951 19.6923C14.0011 19.6923 13.8149 19.6113 13.6777 19.467C13.5405 19.3227 13.4634 19.1271 13.4634 18.9231H12C12 19.5351 12.2313 20.1221 12.6429 20.5549C13.0546 20.9876 13.6129 21.2308 14.1951 21.2308V19.6923ZM13.4634 18.9231C13.4634 18.7191 13.5405 18.5234 13.6777 18.3791C13.8149 18.2349 14.0011 18.1538 14.1951 18.1538V16.6154C13.6129 16.6154 13.0546 16.8585 12.6429 17.2913C12.2313 17.7241 12 18.311 12 18.9231H13.4634ZM14.1951 18.1538C14.3892 18.1538 14.5753 18.2349 14.7125 18.3791C14.8497 18.5234 14.9268 18.7191 14.9268 18.9231H16.3902C16.3902 18.311 16.159 17.7241 15.7473 17.2913C15.3356 16.8585 14.7773 16.6154 14.1951 16.6154V18.1538ZM29.8049 19.6923H29.7961L29.7795 21.2308H29.8049V19.6923ZM29.7961 19.6923C29.6924 19.691 29.5902 19.6666 29.4961 19.6206C29.4021 19.5746 29.3185 19.5082 29.2507 19.4256L28.1434 20.4308C28.5395 20.9128 29.1249 21.2226 29.7795 21.2308L29.7961 19.6923ZM29.2507 19.4256C29.1354 19.2864 29.0722 19.1077 29.0732 18.9231H27.6098C27.6098 19.4985 27.8117 20.0267 28.1434 20.4308L29.2507 19.4256ZM27.8537 21.7713C28.5141 21.079 28.8546 20.7303 29.081 20.5826L28.3132 19.2738C27.9034 19.5405 27.4117 20.0615 26.8205 20.681L27.8537 21.7713ZM14.9268 18.9231C14.9278 19.1077 14.8646 19.2864 14.7493 19.4256L15.8566 20.4308C16.1883 20.0267 16.3902 19.4985 16.3902 18.9231H14.9268ZM17.1795 20.681C16.5883 20.0615 16.0966 19.5395 15.6868 19.2738L14.919 20.5826C15.1454 20.7303 15.4849 21.079 16.1463 21.7713L17.1795 20.681ZM14.7493 19.4256C14.6815 19.5082 14.5979 19.5746 14.5039 19.6206C14.4098 19.6666 14.3076 19.691 14.2039 19.6923L14.2205 21.2308C14.5315 21.2269 14.8383 21.1536 15.1203 21.0157C15.4024 20.8778 15.6534 20.6784 15.8566 20.4308L14.7493 19.4256ZM14.2039 19.6923H14.1951V21.2308H14.2205L14.2039 19.6923ZM15.0488 22.3159C15.0072 21.935 14.9717 21.5534 14.9424 21.1713C14.9218 20.9696 14.9201 20.7662 14.9376 20.5641L13.4868 20.359C13.457 20.6651 13.4557 20.9736 13.4829 21.28C13.5054 21.6164 13.5463 22.0185 13.5941 22.48L15.0488 22.3159ZM23.2195 14.8205C23.2195 15.3179 22.9502 15.7508 22.5532 15.9641L23.2176 17.3344C23.6586 17.0982 24.0289 16.7384 24.2876 16.2947C24.5462 15.8511 24.683 15.3409 24.6829 14.8205H23.2195ZM22.5532 15.9641C22.3873 16.0523 22.201 16.1026 22 16.1026V17.641C22.4236 17.6414 22.8413 17.536 23.2185 17.3333L22.5532 15.9641ZM24.0537 17.241C23.8527 16.8615 23.6722 16.52 23.5063 16.241L22.2654 17.0564C22.4078 17.2964 22.5678 17.601 22.7756 17.9908L24.0537 17.241ZM22 16.1026C21.799 16.1026 21.6117 16.0513 21.4468 15.9641L20.7824 17.3344C21.1483 17.5303 21.5629 17.641 22 17.641V16.1026ZM21.4468 15.9641C21.2462 15.8567 21.0777 15.6931 20.9601 15.4912C20.8425 15.2894 20.7803 15.0572 20.7805 14.8205H19.3171C19.3172 15.3407 19.4541 15.8507 19.7127 16.2942C19.9713 16.7376 20.3415 17.0973 20.7824 17.3333L21.4468 15.9641ZM21.2244 17.9908C21.4312 17.599 21.5922 17.2964 21.7346 17.0574L20.4937 16.241C20.3278 16.52 20.1473 16.8615 19.9463 17.241L21.2244 17.9908Z"/>
</mask>
<path d="M30.2273 24.2287C30.2431 24.0286 30.1838 23.83 30.0622 23.6752C29.9405 23.5204 29.7661 23.4218 29.5762 23.4003C29.3863 23.3789 29.1959 23.4364 29.0458 23.5605C28.8957 23.6846 28.7977 23.8656 28.7727 24.0646L30.2273 24.2287ZM23.0615 30.4615H20.9385V32H23.0615V30.4615ZM15.2273 24.0646L15.0488 22.3159L13.5941 22.48L13.7727 24.2287L15.2273 24.0646ZM19.478 21.281L21.2244 17.9908L19.9463 17.241L18.2 20.5323L19.478 21.281ZM22.7756 17.9908L24.522 21.281L25.8 20.5323L24.0537 17.241L22.7756 17.9908ZM24.522 21.281C24.68 21.5785 24.8244 21.8554 24.9659 22.0656C25.1112 22.2821 25.3073 22.5221 25.6107 22.6626L26.201 21.2544C26.2556 21.279 26.2459 21.3056 26.1629 21.1815C26.0326 20.9711 25.9115 20.7544 25.8 20.5323L24.522 21.281ZM26.8205 20.681C26.5688 20.9456 26.4185 21.1015 26.3005 21.201C26.1883 21.2964 26.1863 21.2687 26.2449 21.2605L26.4449 22.7846C26.7727 22.7364 27.0254 22.5631 27.2215 22.3969C27.4117 22.2349 27.6234 22.0113 27.8537 21.7713L26.8205 20.681ZM25.6107 22.6626C25.8732 22.7836 26.162 22.8256 26.4449 22.7846L26.2449 21.2605C26.23 21.262 26.215 21.2599 26.201 21.2544L25.6107 22.6626ZM16.1473 21.7703C16.3766 22.0113 16.5883 22.2349 16.7785 22.3959C16.9746 22.5641 17.2273 22.7364 17.5551 22.7846L17.7551 21.2605C17.8137 21.2687 17.8117 21.2964 17.6995 21.201C17.5187 21.0362 17.3452 20.8626 17.1795 20.681L16.1473 21.7703ZM18.2 20.5323C18.0882 20.7545 17.9668 20.9711 17.8361 21.1815C17.7541 21.3046 17.7444 21.279 17.799 21.2533L18.3883 22.6626C18.6907 22.5221 18.8898 22.2831 19.0341 22.0656C19.1746 21.8544 19.32 21.5785 19.478 21.281L18.2 20.5323ZM17.5551 22.7846C17.838 22.8256 18.1268 22.7846 18.3883 22.6626L17.799 21.2533C17.785 21.2589 17.77 21.262 17.7551 21.2605L17.5551 22.7846ZM20.9385 30.4615C19.5356 30.4615 18.5532 30.4605 17.8039 30.359C17.0741 30.2615 16.6624 30.079 16.3532 29.7887L15.3776 30.9354C15.9922 31.5138 16.7337 31.7662 17.6176 31.8851C18.482 32.001 19.5746 32 20.9385 32V30.4615ZM13.7727 24.2287C13.9171 25.6421 14.0322 27.0256 14.2273 28.1477C14.3259 28.7138 14.4507 29.2472 14.6224 29.7097C14.7932 30.1692 15.0293 30.6072 15.3776 30.9354L16.3532 29.7887C16.24 29.6821 16.1112 29.4872 15.9854 29.1497C15.8618 28.8161 15.7558 28.3897 15.6673 27.8708C15.4839 26.8226 15.3766 25.5323 15.2273 24.0646L13.7727 24.2287ZM28.7727 24.0646C28.6224 25.5323 28.5151 26.8226 28.3337 27.8697C28.2439 28.3894 28.1376 28.8161 28.0146 29.1497C27.8888 29.4872 27.76 29.6831 27.6468 29.7887L28.6224 30.9354C28.9707 30.6072 29.2068 30.1692 29.3776 29.7097C29.5493 29.2472 29.6741 28.7138 29.7727 28.1477C29.9678 27.0256 30.0829 25.641 30.2273 24.2287L28.7727 24.0646ZM23.0615 32C24.4254 32 25.518 32.001 26.3824 31.8851C27.2673 31.7662 28.0078 31.5138 28.6224 30.9354L27.6468 29.7887C27.3376 30.079 26.9259 30.2605 26.1961 30.359C25.4468 30.4605 24.4644 30.4615 23.0615 30.4615V32ZM20.7805 14.8205C20.7805 14.1128 21.3268 13.5385 22 13.5385V12C21.2884 12 20.606 12.2972 20.1029 12.8261C19.5997 13.3551 19.3171 14.0725 19.3171 14.8205H20.7805ZM22 13.5385C22.6732 13.5385 23.2195 14.1128 23.2195 14.8205H24.6829C24.6829 14.0725 24.4003 13.3551 23.8971 12.8261C23.394 12.2972 22.7116 12 22 12V13.5385ZM30.5366 18.9231C30.5366 19.1271 30.4595 19.3227 30.3223 19.467C30.1851 19.6113 29.9989 19.6923 29.8049 19.6923V21.2308C30.3871 21.2308 30.9454 20.9876 31.3571 20.5549C31.7687 20.1221 32 19.5351 32 18.9231H30.5366ZM29.0732 18.9231C29.0732 18.7191 29.1503 18.5234 29.2875 18.3791C29.4247 18.2349 29.6108 18.1538 29.8049 18.1538V16.6154C29.2227 16.6154 28.6644 16.8585 28.2527 17.2913C27.841 17.7241 27.6098 18.311 27.6098 18.9231H29.0732ZM29.8049 18.1538C29.9989 18.1538 30.1851 18.2349 30.3223 18.3791C30.4595 18.5234 30.5366 18.7191 30.5366 18.9231H32C32 18.311 31.7687 17.7241 31.3571 17.2913C30.9454 16.8585 30.3871 16.6154 29.8049 16.6154V18.1538ZM14.1951 19.6923C14.0011 19.6923 13.8149 19.6113 13.6777 19.467C13.5405 19.3227 13.4634 19.1271 13.4634 18.9231H12C12 19.5351 12.2313 20.1221 12.6429 20.5549C13.0546 20.9876 13.6129 21.2308 14.1951 21.2308V19.6923ZM13.4634 18.9231C13.4634 18.7191 13.5405 18.5234 13.6777 18.3791C13.8149 18.2349 14.0011 18.1538 14.1951 18.1538V16.6154C13.6129 16.6154 13.0546 16.8585 12.6429 17.2913C12.2313 17.7241 12 18.311 12 18.9231H13.4634ZM14.1951 18.1538C14.3892 18.1538 14.5753 18.2349 14.7125 18.3791C14.8497 18.5234 14.9268 18.7191 14.9268 18.9231H16.3902C16.3902 18.311 16.159 17.7241 15.7473 17.2913C15.3356 16.8585 14.7773 16.6154 14.1951 16.6154V18.1538ZM29.8049 19.6923H29.7961L29.7795 21.2308H29.8049V19.6923ZM29.7961 19.6923C29.6924 19.691 29.5902 19.6666 29.4961 19.6206C29.4021 19.5746 29.3185 19.5082 29.2507 19.4256L28.1434 20.4308C28.5395 20.9128 29.1249 21.2226 29.7795 21.2308L29.7961 19.6923ZM29.2507 19.4256C29.1354 19.2864 29.0722 19.1077 29.0732 18.9231H27.6098C27.6098 19.4985 27.8117 20.0267 28.1434 20.4308L29.2507 19.4256ZM27.8537 21.7713C28.5141 21.079 28.8546 20.7303 29.081 20.5826L28.3132 19.2738C27.9034 19.5405 27.4117 20.0615 26.8205 20.681L27.8537 21.7713ZM14.9268 18.9231C14.9278 19.1077 14.8646 19.2864 14.7493 19.4256L15.8566 20.4308C16.1883 20.0267 16.3902 19.4985 16.3902 18.9231H14.9268ZM17.1795 20.681C16.5883 20.0615 16.0966 19.5395 15.6868 19.2738L14.919 20.5826C15.1454 20.7303 15.4849 21.079 16.1463 21.7713L17.1795 20.681ZM14.7493 19.4256C14.6815 19.5082 14.5979 19.5746 14.5039 19.6206C14.4098 19.6666 14.3076 19.691 14.2039 19.6923L14.2205 21.2308C14.5315 21.2269 14.8383 21.1536 15.1203 21.0157C15.4024 20.8778 15.6534 20.6784 15.8566 20.4308L14.7493 19.4256ZM14.2039 19.6923H14.1951V21.2308H14.2205L14.2039 19.6923ZM15.0488 22.3159C15.0072 21.935 14.9717 21.5534 14.9424 21.1713C14.9218 20.9696 14.9201 20.7662 14.9376 20.5641L13.4868 20.359C13.457 20.6651 13.4557 20.9736 13.4829 21.28C13.5054 21.6164 13.5463 22.0185 13.5941 22.48L15.0488 22.3159ZM23.2195 14.8205C23.2195 15.3179 22.9502 15.7508 22.5532 15.9641L23.2176 17.3344C23.6586 17.0982 24.0289 16.7384 24.2876 16.2947C24.5462 15.8511 24.683 15.3409 24.6829 14.8205H23.2195ZM22.5532 15.9641C22.3873 16.0523 22.201 16.1026 22 16.1026V17.641C22.4236 17.6414 22.8413 17.536 23.2185 17.3333L22.5532 15.9641ZM24.0537 17.241C23.8527 16.8615 23.6722 16.52 23.5063 16.241L22.2654 17.0564C22.4078 17.2964 22.5678 17.601 22.7756 17.9908L24.0537 17.241ZM22 16.1026C21.799 16.1026 21.6117 16.0513 21.4468 15.9641L20.7824 17.3344C21.1483 17.5303 21.5629 17.641 22 17.641V16.1026ZM21.4468 15.9641C21.2462 15.8567 21.0777 15.6931 20.9601 15.4912C20.8425 15.2894 20.7803 15.0572 20.7805 14.8205H19.3171C19.3172 15.3407 19.4541 15.8507 19.7127 16.2942C19.9713 16.7376 20.3415 17.0973 20.7824 17.3333L21.4468 15.9641ZM21.2244 17.9908C21.4312 17.599 21.5922 17.2964 21.7346 17.0574L20.4937 16.241C20.3278 16.52 20.1473 16.8615 19.9463 17.241L21.2244 17.9908Z" fill="#FFCC00"/>
<path d="M13.7727 24.2287L13.7166 23.7319L13.8287 24.7256L13.7727 24.2287ZM15.0488 22.3159L15.1048 22.8127L14.9928 21.819L15.0488 22.3159ZM19.9463 17.241L20.1991 16.8096L19.6933 17.6723L19.9463 17.241ZM22.7756 17.9908L22.5224 17.5597L23.0286 18.422L22.7756 17.9908ZM25.6107 22.6626L25.1496 22.4693L26.0718 22.856L25.6107 22.6626ZM26.8205 20.681L27.1831 20.3368L26.4576 21.025L26.8205 20.681ZM26.2449 21.2605L26.7406 21.1955L25.7491 21.3253L26.2449 21.2605ZM17.7551 21.2605L18.2509 21.3253L17.2594 21.1955L17.7551 21.2605ZM18.3883 22.6626L17.927 22.8555L18.8498 22.4702L18.3883 22.6626ZM29.7795 21.2308L29.2795 21.2257L30.2795 21.2362L29.7795 21.2308ZM29.2507 19.4256L29.587 19.7957L28.9147 19.0554L29.2507 19.4256ZM28.7727 24.0646L28.7166 24.5615L30.1713 24.7256L30.2273 24.2287L30.2834 23.7319L28.8287 23.5678L28.7727 24.0646ZM14.5005 24.1467L14.4445 23.6498L13.7167 23.7319L13.7727 24.2287L13.8287 24.7256L14.5565 24.6435L14.5005 24.1467ZM14.321 22.3979L14.377 22.8948L15.1048 22.8127L15.0488 22.3159L14.9928 21.819L14.265 21.9011L14.321 22.3979ZM18.839 20.9067L18.5863 21.3381L19.2253 21.7124L19.478 21.281L19.7308 20.8496L19.0918 20.4752L18.839 20.9067ZM20.5854 17.6154L20.8381 17.184L20.1991 16.8096L19.9463 17.241L19.6936 17.6724L20.3326 18.0468L20.5854 17.6154ZM23.4146 17.6154L23.1614 17.1843L22.5224 17.5597L22.7756 17.9908L23.0289 18.4219L23.6679 18.0465L23.4146 17.6154ZM25.161 20.9067L25.4137 21.3381L26.0527 20.9637L25.8 20.5323L25.5473 20.1009L24.9082 20.4752L25.161 20.9067ZM25.9063 21.9579L25.4453 21.7645L25.1497 22.4691L25.6107 22.6626L26.0718 22.856L26.3674 22.1514L25.9063 21.9579ZM27.3376 21.2256L27.7002 20.8814L27.1831 20.3368L26.8205 20.681L26.4579 21.0253L26.975 21.5699L27.3376 21.2256ZM26.3444 22.0226L26.8402 21.9578L26.7407 21.1958L26.2449 21.2605L25.7491 21.3253L25.8486 22.0873L26.3444 22.0226ZM16.6634 21.2256L16.3005 20.8817L15.7834 21.4274L16.1463 21.7713L16.5093 22.1152L17.0263 21.5696L16.6634 21.2256ZM17.6556 22.0226L18.1514 22.0873L18.2509 21.3253L17.7551 21.2605L17.2593 21.1958L17.1598 21.9578L17.6556 22.0226ZM18.0946 21.9579L17.6331 22.1503L17.9268 22.8549L18.3883 22.6626L18.8498 22.4702L18.5562 21.7656L18.0946 21.9579ZM15.8654 30.3621L16.2462 30.6861L16.734 30.1127L16.3532 29.7887L15.9724 29.4647L15.4846 30.038L15.8654 30.3621ZM28.1346 30.3621L28.5154 30.038L28.0276 29.4647L27.6468 29.7887L27.266 30.1127L27.7538 30.6861L28.1346 30.3621ZM29.7873 20.4615L29.2873 20.4565L29.2795 21.2257L29.7795 21.2308L30.2795 21.2358L30.2873 20.4666L29.7873 20.4615ZM28.6976 19.9282L29.0338 20.2983L29.587 19.7957L29.2507 19.4256L28.9145 19.0556L28.3613 19.5581L28.6976 19.9282ZM22.8859 16.6492L23.3356 16.4308L23.0029 15.7457L22.5532 15.9641L22.1034 16.1825L22.4361 16.8676L22.8859 16.6492ZM21.1141 16.6492L21.5639 16.8676L21.8966 16.1825L21.4468 15.9641L20.9971 15.7457L20.6644 16.4308L21.1141 16.6492ZM20.9385 30.4615H20.4385V32H20.9385H21.4385V30.4615H20.9385ZM23.0615 32H23.5615V30.4615H23.0615H22.5615V32H23.0615ZM15.0488 22.3159L14.9927 21.819L13.5381 21.9832L13.5941 22.48L13.6502 22.9768L15.1048 22.8127L15.0488 22.3159ZM13.7727 24.2287L13.8287 24.7256L15.2834 24.5615L15.2273 24.0646L15.1713 23.5678L13.7166 23.7319L13.7727 24.2287ZM21.2244 17.9908L21.4774 17.5595L20.1993 16.8098L19.9463 17.241L19.6933 17.6723L20.9714 18.422L21.2244 17.9908ZM18.2 20.5323L17.9473 20.9637L19.2253 21.7124L19.478 21.281L19.7308 20.8496L18.4527 20.1009L18.2 20.5323ZM24.522 21.281L24.7747 21.7124L26.0527 20.9637L25.8 20.5323L25.5473 20.1009L24.2692 20.8496L24.522 21.281ZM24.0537 17.241L23.8007 16.8098L22.5226 17.5595L22.7756 17.9908L23.0286 18.422L24.3067 17.6723L24.0537 17.241ZM25.6107 22.6626L26.0719 22.8558L26.6621 21.4476L26.201 21.2544L25.7398 21.0611L25.1496 22.4693L25.6107 22.6626ZM26.2449 21.2605L25.7491 21.3256L25.9491 22.8497L26.4449 22.7846L26.9406 22.7196L26.7406 21.1955L26.2449 21.2605ZM27.8537 21.7713L28.2166 21.4274L27.1834 20.3371L26.8205 20.681L26.4576 21.025L27.4907 22.1152L27.8537 21.7713ZM17.5551 22.7846L18.0509 22.8497L18.2509 21.3256L17.7551 21.2605L17.2594 21.1955L17.0594 22.7196L17.5551 22.7846ZM17.799 21.2533L17.3377 21.4462L17.927 22.8555L18.3883 22.6626L18.8496 22.4697L18.2603 21.0604L17.799 21.2533ZM16.3532 29.7887L15.9724 29.4647L14.9967 30.6114L15.3776 30.9354L15.7584 31.2594L16.734 30.1127L16.3532 29.7887ZM27.6468 29.7887L27.266 30.1127L28.2416 31.2594L28.6224 30.9354L29.0033 30.6114L28.0276 29.4647L27.6468 29.7887ZM22 13.5385H22.5V12H22H21.5V13.5385H22ZM19.3171 14.8205V15.3205H20.7805V14.8205V14.3205H19.3171V14.8205ZM23.2195 14.8205V15.3205H24.6829V14.8205V14.3205H23.2195V14.8205ZM29.8049 19.6923H29.3049V21.2308H29.8049H30.3049V19.6923H29.8049ZM32 18.9231V18.4231H30.5366V18.9231V19.4231H32V18.9231ZM29.8049 18.1538H30.3049V16.6154H29.8049H29.3049V18.1538H29.8049ZM27.6098 18.9231V19.4231H29.0732V18.9231V18.4231H27.6098V18.9231ZM13.4634 18.9231V18.4231H12V18.9231V19.4231H13.4634V18.9231ZM14.1951 21.2308H14.6951V19.6923H14.1951H13.6951V21.2308H14.1951ZM14.1951 18.1538H14.6951V16.6154H14.1951H13.6951V18.1538H14.1951ZM14.9268 18.9231V19.4231H16.3902V18.9231V18.4231H14.9268V18.9231ZM29.7961 19.6923L29.2961 19.6869L29.2795 21.2254L29.7795 21.2308L30.2795 21.2362L30.2961 19.6977L29.7961 19.6923ZM29.2507 19.4256L28.9147 19.0554L27.8074 20.0605L28.1434 20.4308L28.4795 20.801L29.5868 19.7959L29.2507 19.4256ZM14.7493 19.4256L14.4132 19.7959L15.5205 20.801L15.8566 20.4308L16.1926 20.0605L15.0853 19.0554L14.7493 19.4256ZM14.2039 19.6923L13.7039 19.6977L13.7205 21.2362L14.2205 21.2308L14.7205 21.2254L14.7039 19.6869L14.2039 19.6923ZM22 16.1026H21.5V17.641H22H22.5V16.1026H22ZM30.2273 24.2287L31.2221 24.3304L31.2233 24.3189L31.2242 24.3073L30.2273 24.2287ZM28.7727 24.0646L27.7805 23.9402L27.779 23.9515L27.7779 23.9628L28.7727 24.0646ZM13.7727 24.2287L12.7779 24.3303L12.7779 24.3304L13.7727 24.2287ZM15.0488 22.3159L16.0436 22.2143L16.0429 22.2073L15.0488 22.3159ZM19.478 21.281L20.3611 21.7503L20.3613 21.7498L19.478 21.281ZM19.9463 17.241L20.8297 17.7097L20.8301 17.709L19.9463 17.241ZM22.7756 17.9908L23.6589 17.5219L23.658 17.5203L22.7756 17.9908ZM25.8 20.5323L26.6938 20.0838L26.6887 20.0737L26.6834 20.0636L25.8 20.5323ZM25.6107 22.6626L25.1905 23.57L25.192 23.5707L25.6107 22.6626ZM26.8205 20.681L26.0971 19.9906L26.0959 19.9918L26.8205 20.681ZM26.2449 21.2605L26.3837 22.2508L26.1437 20.2656L26.2449 21.2605ZM16.1463 21.7713L15.4233 22.4621L16.1493 23.222L16.8722 22.4591L16.1463 21.7713ZM17.7551 21.2605L17.8563 20.2656L17.6163 22.2508L17.7551 21.2605ZM18.3883 22.6626L17.9669 21.7557L17.9653 21.7564L18.3883 22.6626ZM16.3532 29.7887L15.6673 30.5164L15.6688 30.5179L16.3532 29.7887ZM27.6468 29.7887L26.9645 29.0577L26.9625 29.0596L27.6468 29.7887ZM29.7795 21.2308L29.767 22.2308H29.7795V21.2308ZM29.2507 19.4256L30.0237 18.7912L30.0207 18.7876L29.2507 19.4256ZM15.2273 24.0646L16.2222 23.9634L16.2221 23.963L15.2273 24.0646ZM13.5941 22.48L14.589 22.3784L14.5888 22.377L13.5941 22.48ZM21.2244 17.9908L22.1077 18.4596L22.1087 18.4576L21.2244 17.9908ZM18.2 20.5323L17.3166 20.0636L17.3116 20.0732L17.3067 20.0828L18.2 20.5323ZM24.522 21.281L23.6387 21.7498L23.6389 21.7503L24.522 21.281ZM24.0537 17.241L23.1699 17.709L23.1703 17.7097L24.0537 17.241ZM24.9659 22.0656L25.796 21.508L25.7955 21.5074L24.9659 22.0656ZM26.201 21.2544L26.5704 20.3251L25.7902 22.1661L26.201 21.2544ZM26.1629 21.1815L25.3128 21.7081L25.3219 21.7228L25.3315 21.7371L26.1629 21.1815ZM26.3005 21.201L25.6561 20.4364L25.6528 20.4391L26.3005 21.201ZM26.4449 22.7846L26.5884 23.7743L26.5904 23.774L26.4449 22.7846ZM27.2215 22.3969L27.8679 23.1599L27.8699 23.1582L27.2215 22.3969ZM27.8537 21.7713L28.5753 22.4636L28.5772 22.4616L27.8537 21.7713ZM16.1473 21.7703L15.4215 21.0824L14.7684 21.7716L15.4228 22.4595L16.1473 21.7703ZM16.7785 22.3959L17.4296 21.6369L17.4246 21.6326L16.7785 22.3959ZM17.5551 22.7846L17.4096 23.774L17.4116 23.7743L17.5551 22.7846ZM17.6995 21.201L17.0258 21.94L17.0386 21.9517L17.0518 21.9629L17.6995 21.201ZM17.1795 20.681L17.9183 20.0071L17.9107 19.9988L17.9029 19.9906L17.1795 20.681ZM17.8361 21.1815L18.6685 21.7358L18.6772 21.7226L18.6856 21.7091L17.8361 21.1815ZM17.799 21.2533L18.2239 22.1586L17.4296 20.3241L17.799 21.2533ZM19.0341 22.0656L18.2014 21.5119L18.2011 21.5124L19.0341 22.0656ZM17.8039 30.359L17.9382 29.368L17.9362 29.3678L17.8039 30.359ZM15.3776 30.9354L14.6918 31.6632L14.6922 31.6636L15.3776 30.9354ZM17.6176 31.8851L17.4842 32.8762L17.4847 32.8763L17.6176 31.8851ZM14.2273 28.1477L13.2421 28.319L13.2421 28.3192L14.2273 28.1477ZM14.6224 29.7097L13.6849 30.0577L13.6851 30.058L14.6224 29.7097ZM15.9854 29.1497L15.0476 29.497L15.0484 29.4992L15.9854 29.1497ZM15.6673 27.8708L16.6531 27.7028L16.6524 27.6984L15.6673 27.8708ZM28.3337 27.8697L27.3483 27.699L27.3483 27.6995L28.3337 27.8697ZM28.0146 29.1497L28.9516 29.4992L28.953 29.4954L28.0146 29.1497ZM28.6224 30.9354L29.3078 31.6636L29.3082 31.6632L28.6224 30.9354ZM29.3776 29.7097L30.3149 30.058L30.3151 30.0577L29.3776 29.7097ZM29.7727 28.1477L30.7579 28.3192L30.7579 28.319L29.7727 28.1477ZM26.3824 31.8851L26.5153 32.8763L26.5157 32.8762L26.3824 31.8851ZM26.1961 30.359L26.0624 29.368L26.0618 29.368L26.1961 30.359ZM20.7805 14.8205L21.7805 14.8213V14.8205H20.7805ZM22 12V11V12ZM19.3171 14.8205H18.3171V14.8207L19.3171 14.8205ZM24.6829 14.8205H23.6829V14.8207L24.6829 14.8205ZM29.0732 18.9231L30.0732 18.9282V18.9231H29.0732ZM29.8049 16.6154V15.6154V16.6154ZM12 18.9231H11H12ZM14.1951 16.6154V15.6154V16.6154ZM14.9268 18.9231H13.9268L13.9268 18.9282L14.9268 18.9231ZM16.3902 18.9231H17.3902H16.3902ZM29.7961 19.6923L29.7837 20.6923H29.7961V19.6923ZM28.1434 20.4308L27.3705 21.0652L27.3708 21.0656L28.1434 20.4308ZM29.081 20.5826L29.6274 21.42L30.426 20.899L29.9435 20.0765L29.081 20.5826ZM28.3132 19.2738L29.1757 18.7678L28.6456 17.8644L27.7677 18.4357L28.3132 19.2738ZM14.7493 19.4256L13.9792 18.7876L13.9763 18.7912L14.7493 19.4256ZM15.8566 20.4308L15.0836 19.7963L15.0836 19.7964L15.8566 20.4308ZM15.6868 19.2738L16.2308 18.4347L15.3534 17.8659L14.8243 18.7678L15.6868 19.2738ZM14.919 20.5826L14.0565 20.0765L13.574 20.899L14.3726 21.42L14.919 20.5826ZM14.2039 19.6923V20.6924L14.2163 20.6922L14.2039 19.6923ZM14.2205 21.2308V22.2308L14.2329 22.2307L14.2205 21.2308ZM14.9424 21.1713L15.9395 21.0949L15.9385 21.0821L15.9372 21.0694L14.9424 21.1713ZM14.9376 20.5641L15.9339 20.65L16.0152 19.7065L15.0776 19.574L14.9376 20.5641ZM13.4868 20.359L13.6268 19.3688L12.593 19.2226L12.4916 20.2619L13.4868 20.359ZM13.4829 21.28L14.4807 21.2134L14.48 21.2024L14.479 21.1913L13.4829 21.28ZM23.2176 17.3344L22.3178 17.7706L22.7719 18.7073L23.6896 18.216L23.2176 17.3344ZM22 17.641L22.0009 16.641H22V17.641ZM23.2185 17.3333L23.6917 18.2143L24.5377 17.7599L24.118 16.8963L23.2185 17.3333ZM23.5063 16.241L24.3659 15.73L23.8314 14.8309L22.9572 15.4053L23.5063 16.241ZM22.2654 17.0564L21.7162 16.2207L20.9178 16.7453L21.4054 17.5668L22.2654 17.0564ZM20.7824 17.3344L19.8826 16.8981L19.4635 17.7625L20.3104 18.2159L20.7824 17.3344ZM20.7824 17.3333L20.3104 18.2149L21.2278 18.7061L21.6821 17.7699L20.7824 17.3333ZM21.7346 17.0574L22.5936 17.5694L23.0834 16.7477L22.2842 16.222L21.7346 17.0574ZM20.4937 16.241L21.0433 15.4056L20.1689 14.8304L19.6341 15.73L20.4937 16.241ZM30.2273 24.2287L31.2242 24.3073C31.2593 23.8622 31.1286 23.4137 30.8483 23.0572L30.0622 23.6752L29.276 24.2932C29.2391 24.2462 29.2269 24.195 29.2304 24.1501L30.2273 24.2287ZM30.0622 23.6752L30.8483 23.0572C30.5669 22.6992 30.153 22.4591 29.6883 22.4066L29.5762 23.4003L29.4641 24.394C29.3792 24.3845 29.3141 24.3417 29.276 24.2932L30.0622 23.6752ZM29.5762 23.4003L29.6883 22.4066C29.2229 22.3541 28.7634 22.4965 28.4086 22.7898L29.0458 23.5605L29.683 24.3312C29.6285 24.3763 29.5497 24.4037 29.4641 24.394L29.5762 23.4003ZM29.0458 23.5605L28.4086 22.7898C28.0557 23.0816 27.8361 23.4967 27.7805 23.9402L28.7727 24.0646L29.7649 24.1891C29.7592 24.2344 29.7356 24.2877 29.683 24.3312L29.0458 23.5605ZM23.0615 30.4615V29.4615H20.9385V30.4615V31.4615H23.0615V30.4615ZM20.9385 32V33H23.0615V32V31H20.9385V32ZM15.2273 24.0646L16.2221 23.963L16.0436 22.2143L15.0488 22.3159L14.054 22.4175L14.2325 24.1662L15.2273 24.0646ZM13.5941 22.48L12.5993 22.5816L12.7779 24.3303L13.7727 24.2287L14.7675 24.1272L14.589 22.3784L13.5941 22.48ZM19.478 21.281L20.3613 21.7498L22.1077 18.4596L21.2244 17.9908L20.3411 17.522L18.5948 20.8122L19.478 21.281ZM19.9463 17.241L19.063 16.7723L17.3166 20.0636L18.2 20.5323L19.0834 21.001L20.8297 17.7097L19.9463 17.241ZM22.7756 17.9908L21.8923 18.4596L23.6387 21.7498L24.522 21.281L25.4052 20.8122L23.6589 17.522L22.7756 17.9908ZM25.8 20.5323L26.6834 20.0636L24.937 16.7723L24.0537 17.241L23.1703 17.7097L24.9166 21.001L25.8 20.5323ZM24.522 21.281L23.6389 21.7503C23.7846 22.0245 23.9583 22.3595 24.1362 22.6239L24.9659 22.0656L25.7955 21.5074C25.6905 21.3513 25.5754 21.1324 25.405 20.8118L24.522 21.281ZM24.9659 22.0656L24.1357 22.6232C24.3161 22.8917 24.6382 23.3142 25.1905 23.57L25.6107 22.6626L26.031 21.7551C25.9765 21.7299 25.9063 21.6724 25.796 21.508L24.9659 22.0656ZM26.201 21.2544L25.7902 22.1661C25.7326 22.1401 25.6819 22.1092 25.6375 22.0766C25.618 22.0623 25.5912 22.0414 25.5605 22.0133C25.5559 22.0091 25.5482 22.002 25.5388 21.9929C25.5343 21.9885 25.5266 21.9809 25.5172 21.9713C25.5123 21.9662 25.4886 21.942 25.4613 21.9085C25.4536 21.8992 25.41 21.8467 25.3671 21.7717C25.341 21.7231 25.2812 21.5753 25.2551 21.4742C25.2355 21.2466 25.4391 20.6699 25.7311 20.4114C25.9833 20.3074 26.3783 20.2854 26.5001 20.3109C26.5603 20.3295 26.6532 20.3667 26.6867 20.3829C26.7437 20.4118 26.7851 20.4399 26.7963 20.4474C26.8269 20.4682 26.8496 20.4862 26.8555 20.4909C26.8652 20.4985 26.8728 20.5049 26.8775 20.5088C26.9042 20.5312 26.9235 20.5499 26.9281 20.5543C26.9897 20.6138 27.0111 20.6509 26.9944 20.6259L26.1629 21.1815L25.3315 21.7371C25.3977 21.8362 25.4654 21.9221 25.539 21.9931C25.545 21.999 25.5653 22.0185 25.5925 22.0413C25.5972 22.0453 25.6049 22.0517 25.6146 22.0593C25.6205 22.064 25.6432 22.082 25.6739 22.1028C25.6851 22.1104 25.7265 22.1385 25.7835 22.1674C25.817 22.1835 25.9099 22.2208 25.9701 22.2394C26.0919 22.2648 26.4869 22.2429 26.7391 22.1389C27.0311 21.8804 27.2347 21.3037 27.2151 21.0761C27.189 20.975 27.1292 20.8272 27.1031 20.7786C27.0602 20.7035 27.0166 20.6511 27.0089 20.6417C26.9815 20.6083 26.9579 20.584 26.9529 20.5789C26.9435 20.5692 26.9358 20.5616 26.9312 20.5572C26.9217 20.548 26.9139 20.5407 26.9091 20.5364C26.8771 20.5072 26.8469 20.4834 26.822 20.4651C26.7667 20.4244 26.6967 20.3809 26.6118 20.3426L26.201 21.2544ZM26.1629 21.1815L27.013 20.655C26.8985 20.47 26.7919 20.2794 26.6938 20.0838L25.8 20.5323L24.9062 20.9808C25.031 21.2295 25.1667 21.4722 25.3128 21.7081L26.1629 21.1815ZM26.8205 20.681L26.0959 19.9918C25.8282 20.2733 25.7219 20.3809 25.6561 20.4364L26.3005 21.201L26.9449 21.9657C27.1151 21.8222 27.3094 21.618 27.545 21.3702L26.8205 20.681ZM26.3005 21.201L25.6528 20.4391C25.6333 20.4557 25.6596 20.4305 25.7252 20.3943C25.7341 20.3893 25.7416 20.3854 25.7463 20.383C25.7511 20.3804 25.7422 20.385 25.7347 20.389C25.7328 20.3901 25.7233 20.3951 25.7114 20.4019C25.7044 20.406 25.6849 20.4176 25.6726 20.4253C25.6463 20.4425 25.5306 20.5339 25.4497 20.6173C25.2456 21.5464 26.1725 22.27 26.436 22.244C26.4813 22.2322 26.5436 22.2122 26.5611 22.2058C26.5845 22.1969 26.603 22.1888 26.6038 22.1884C26.6106 22.1855 26.6375 22.1734 26.6168 22.1827C26.5982 22.191 26.576 22.2003 26.5509 22.2093C26.5022 22.2268 26.4462 22.2421 26.3837 22.2508L26.2449 21.2605L26.1061 20.2702C26.0143 20.2831 25.9366 20.3049 25.8753 20.3269C25.8438 20.3382 25.8177 20.3492 25.7975 20.3582C25.7764 20.3677 25.8031 20.3557 25.8098 20.3528C25.8106 20.3524 25.8291 20.3444 25.8526 20.3355C25.87 20.329 25.9323 20.309 25.9776 20.2972C26.2412 20.2712 27.168 20.9948 26.9639 21.9239C26.8831 22.0073 26.7674 22.0987 26.741 22.1159C26.7287 22.1236 26.7092 22.1352 26.7022 22.1393C26.6903 22.1461 26.6808 22.1511 26.6789 22.1521C26.6715 22.1561 26.6626 22.1607 26.6676 22.1581C26.6728 22.1554 26.6814 22.1509 26.6922 22.145C26.7721 22.1008 26.8555 22.0417 26.9482 21.9629L26.3005 21.201ZM26.4449 22.7846L26.5904 23.774C27.1919 23.6855 27.6184 23.3713 27.8679 23.1599L27.2215 22.3969L26.575 21.634C26.4323 21.7549 26.3534 21.7873 26.2994 21.7953L26.4449 22.7846ZM27.2215 22.3969L27.8699 23.1582C28.1081 22.9553 28.3619 22.686 28.5753 22.4636L27.8537 21.7713L27.132 21.079C26.885 21.3365 26.7153 21.5145 26.573 21.6357L27.2215 22.3969ZM25.6107 22.6626L25.192 23.5707C25.6286 23.772 26.1126 23.8433 26.5884 23.7743L26.4449 22.7846L26.3014 21.795C26.2113 21.808 26.1177 21.7951 26.0295 21.7545L25.6107 22.6626ZM26.2449 21.2605L26.1437 20.2656C26.2897 20.2508 26.436 20.2717 26.5704 20.3251L26.201 21.2544L25.8315 22.1836C25.9939 22.2482 26.1703 22.2733 26.3461 22.2554L26.2449 21.2605ZM16.1473 21.7703L15.4228 22.4595C15.6376 22.6853 15.8915 22.9552 16.1325 23.1592L16.7785 22.3959L17.4246 21.6326C17.2851 21.5145 17.1156 21.3372 16.8719 21.081L16.1473 21.7703ZM16.7785 22.3959L16.1275 23.1549C16.3823 23.3735 16.8089 23.6856 17.4096 23.774L17.5551 22.7846L17.7006 21.7953C17.6457 21.7872 17.567 21.7547 17.4296 21.6369L16.7785 22.3959ZM17.7551 21.2605L17.6163 22.2508C17.5538 22.2421 17.4978 22.2268 17.4491 22.2093C17.424 22.2003 17.4018 22.191 17.3832 22.1827C17.3625 22.1734 17.3894 22.1855 17.3963 22.1885C17.3971 22.1888 17.4156 22.1969 17.4392 22.2059C17.4567 22.2123 17.519 22.2323 17.5644 22.2441C17.8269 22.27 18.7538 21.5485 18.552 20.6192C18.4707 20.5351 18.3543 20.4429 18.3279 20.4255C18.3154 20.4178 18.2959 20.4061 18.2888 20.4021C18.2769 20.3952 18.2673 20.3902 18.2654 20.3891C18.2579 20.3851 18.2489 20.3805 18.2537 20.383C18.2584 20.3854 18.2659 20.3893 18.2749 20.3943C18.3404 20.4305 18.3667 20.4557 18.3472 20.4391L17.6995 21.201L17.0518 21.9629C17.1445 22.0417 17.2279 22.1008 17.3078 22.1449C17.3186 22.1509 17.3272 22.1554 17.3324 22.1581C17.3373 22.1607 17.3285 22.1561 17.321 22.1521C17.319 22.151 17.3095 22.146 17.2976 22.1391C17.2905 22.1351 17.2709 22.1234 17.2585 22.1157C17.2321 22.0983 17.1157 22.0061 17.0344 21.922C16.8326 20.9927 17.7595 20.2712 18.022 20.2971C18.0674 20.3089 18.1297 20.3289 18.1472 20.3354C18.1707 20.3443 18.1892 20.3524 18.19 20.3527C18.1968 20.3557 18.2235 20.3677 18.2025 20.3582C18.1823 20.3492 18.1562 20.3382 18.1247 20.3269C18.0634 20.3049 17.9857 20.2831 17.8939 20.2702L17.7551 21.2605ZM17.6995 21.201L18.3732 20.462C18.2152 20.318 18.0634 20.1662 17.9183 20.0071L17.1795 20.681L16.4407 21.3549C16.6269 21.5591 16.8222 21.7544 17.0258 21.94L17.6995 21.201ZM17.1795 20.681L16.4537 19.9932L15.4215 21.0824L16.1473 21.7703L16.8732 22.4581L17.9054 21.3689L17.1795 20.681ZM18.2 20.5323L17.3067 20.0828C17.2083 20.2784 17.1015 20.469 16.9866 20.6539L17.8361 21.1815L18.6856 21.7091C18.8321 21.4732 18.9681 21.2305 19.0933 20.9818L18.2 20.5323ZM17.8361 21.1815L17.0037 20.6273C16.9879 20.6511 17.0074 20.6172 17.0644 20.561C17.0698 20.5556 17.084 20.5418 17.1033 20.5247C17.1065 20.5219 17.1116 20.5174 17.118 20.512C17.1215 20.509 17.1371 20.4957 17.158 20.4798C17.1631 20.4759 17.1968 20.4498 17.2429 20.4217C17.2742 20.4033 17.3753 20.3536 17.4467 20.3266C17.675 20.2787 18.4563 20.5522 18.7473 21.0882C18.7603 21.37 18.6582 21.724 18.6155 21.8004C18.594 21.8337 18.5576 21.8841 18.5437 21.9018C18.5198 21.9314 18.4995 21.9531 18.494 21.9589C18.4789 21.9751 18.4665 21.9872 18.4629 21.9907C18.4573 21.9961 18.4527 22.0005 18.4496 22.0034C18.4434 22.0092 18.4383 22.0139 18.4347 22.0171C18.4097 22.0396 18.387 22.0578 18.3675 22.0723C18.3259 22.1033 18.2782 22.1331 18.2239 22.1586L17.799 21.2533L17.3742 20.3481C17.2925 20.3864 17.2256 20.429 17.173 20.4682C17.148 20.4868 17.1219 20.5079 17.0956 20.5316C17.0918 20.5349 17.0865 20.5398 17.0803 20.5457C17.0802 20.5457 17.0595 20.5649 17.0356 20.5903C17.0302 20.5961 17.0098 20.6178 16.986 20.6475C16.972 20.6652 16.9357 20.7156 16.9142 20.7489C16.8715 20.8252 16.7694 21.1792 16.7824 21.4611C17.0733 21.997 17.8546 22.2706 18.0829 22.2227C18.1544 22.1956 18.2555 22.146 18.2868 22.1276C18.3328 22.0994 18.3665 22.0734 18.3717 22.0694C18.3926 22.0535 18.4082 22.0402 18.4118 22.0372C18.4182 22.0317 18.4234 22.0272 18.4266 22.0243C18.4463 22.0069 18.4614 21.9922 18.4683 21.9854C18.537 21.9177 18.6024 21.835 18.6685 21.7358L17.8361 21.1815ZM18.3883 22.6626L18.8096 23.5695C19.3565 23.3154 19.6813 22.8987 19.8672 22.6188L19.0341 22.0656L18.2011 21.5124C18.0982 21.6674 18.0249 21.7287 17.9669 21.7557L18.3883 22.6626ZM19.0341 22.0656L19.8669 22.6193C20.0411 22.3574 20.2127 22.0297 20.3611 21.7503L19.478 21.281L18.595 20.8118C18.4274 21.1272 18.3082 21.3513 18.2014 21.5119L19.0341 22.0656ZM17.5551 22.7846L17.4116 23.7743C17.8847 23.8429 18.3706 23.7744 18.8113 23.5687L18.3883 22.6626L17.9653 21.7564C17.883 21.7948 17.7914 21.8084 17.6986 21.795L17.5551 22.7846ZM17.799 21.2533L17.4296 20.3241C17.5175 20.2891 17.6673 20.2464 17.8563 20.2656L17.7551 21.2605L17.6539 22.2554C17.8727 22.2776 18.0525 22.2287 18.1685 22.1826L17.799 21.2533ZM20.9385 30.4615V29.4615C19.5065 29.4615 18.6046 29.4583 17.9382 29.368L17.8039 30.359L17.6696 31.3499C18.5018 31.4627 19.5647 31.4615 20.9385 31.4615V30.4615ZM17.8039 30.359L17.9362 29.3678C17.3238 29.286 17.1399 29.1556 17.0375 29.0596L16.3532 29.7887L15.6688 30.5179C16.185 31.0023 16.8245 31.2371 17.6716 31.3502L17.8039 30.359ZM15.3776 30.9354L14.6922 31.6636C15.5153 32.4382 16.4863 32.7419 17.4842 32.8762L17.6176 31.8851L17.751 30.8941C16.981 30.7904 16.4691 30.5894 16.0629 30.2072L15.3776 30.9354ZM17.6176 31.8851L17.4847 32.8763C18.4306 33.0031 19.6015 33 20.9385 33V32V31C19.5478 31 18.5333 30.999 17.7505 30.894L17.6176 31.8851ZM13.7727 24.2287L12.7779 24.3304C12.9188 25.7104 13.039 27.1512 13.2421 28.319L14.2273 28.1477L15.2125 27.9764C15.0254 26.9 14.9153 25.5737 14.7675 24.1271L13.7727 24.2287ZM14.2273 28.1477L13.2421 28.3192C13.3459 28.9152 13.4834 29.5149 13.6849 30.0577L14.6224 29.7097L15.5599 29.3617C15.418 28.9794 15.3058 28.5125 15.2125 27.9762L14.2273 28.1477ZM14.6224 29.7097L13.6851 30.058C13.8841 30.5937 14.1886 31.189 14.6918 31.6632L15.3776 30.9354L16.0634 30.2076C15.87 30.0254 15.7023 29.7448 15.5598 29.3614L14.6224 29.7097ZM16.3532 29.7887L17.0391 29.061C17.0642 29.0847 17.059 29.0874 17.0332 29.0441C17.0079 29.0017 16.9688 28.925 16.9223 28.8003L15.9854 29.1497L15.0484 29.4992C15.202 29.9111 15.399 30.2635 15.6673 30.5164L16.3532 29.7887ZM15.9854 29.1497L16.9231 28.8024C16.8286 28.5474 16.7356 28.1867 16.6531 27.7028L15.6673 27.8708L14.6815 28.0388C14.776 28.5928 14.8949 29.0848 15.0476 29.497L15.9854 29.1497ZM15.6673 27.8708L16.6524 27.6984C16.4771 26.6968 16.3748 25.4645 16.2222 23.9634L15.2273 24.0646L14.2324 24.1658C14.3783 25.6001 14.4907 26.9483 14.6823 28.0431L15.6673 27.8708ZM28.7727 24.0646L27.7779 23.9628C27.6242 25.4643 27.522 26.6971 27.3483 27.699L28.3337 27.8697L29.319 28.0405C29.5083 26.948 29.6207 25.6003 29.7675 24.1665L28.7727 24.0646ZM28.3337 27.8697L27.3483 27.6995C27.2644 28.1851 27.1708 28.5474 27.0763 28.8041L28.0146 29.1497L28.953 29.4954C29.1043 29.0847 29.2234 28.5937 29.3191 28.0399L28.3337 27.8697ZM28.0146 29.1497L27.0777 28.8003C27.031 28.9254 26.9918 29.0024 26.9665 29.0449C26.9405 29.0888 26.9363 29.084 26.9645 29.0577L27.6468 29.7887L28.3292 30.5197C28.6018 30.2653 28.7991 29.9081 28.9516 29.4992L28.0146 29.1497ZM28.6224 30.9354L29.3082 31.6632C29.8114 31.189 30.1159 30.5937 30.3149 30.058L29.3776 29.7097L28.4402 29.3614C28.2977 29.7448 28.13 30.0254 27.9366 30.2076L28.6224 30.9354ZM29.3776 29.7097L30.3151 30.0577C30.5166 29.5149 30.6541 28.9152 30.7579 28.3192L29.7727 28.1477L28.7875 27.9762C28.6942 28.5125 28.582 28.9794 28.4401 29.3617L29.3776 29.7097ZM29.7727 28.1477L30.7579 28.319C30.961 27.1513 31.0812 25.7092 31.2221 24.3304L30.2273 24.2287L29.2325 24.127C29.0847 25.5728 28.9746 26.9 28.7875 27.9764L29.7727 28.1477ZM23.0615 32V33C24.3985 33 25.5694 33.0031 26.5153 32.8763L26.3824 31.8851L26.2495 30.894C25.4667 30.999 24.4522 31 23.0615 31V32ZM26.3824 31.8851L26.5157 32.8762C27.5149 32.7419 28.4848 32.4381 29.3078 31.6636L28.6224 30.9354L27.9371 30.2072C27.5308 30.5896 27.0198 30.7904 26.2492 30.894L26.3824 31.8851ZM27.6468 29.7887L26.9625 29.0596C26.8607 29.1551 26.6772 29.285 26.0624 29.368L26.1961 30.359L26.3298 31.35C27.1745 31.236 27.8144 31.0029 28.3312 30.5179L27.6468 29.7887ZM26.1961 30.359L26.0618 29.368C25.3954 29.4583 24.4935 29.4615 23.0615 29.4615V30.4615V31.4615C24.4353 31.4615 25.4982 31.4627 26.3304 31.3499L26.1961 30.359ZM20.7805 14.8205H21.7805C21.7805 14.6174 21.9257 14.5385 22 14.5385V13.5385V12.5385C20.728 12.5385 19.7805 13.6083 19.7805 14.8205H20.7805ZM22 12V11C21.0066 11 20.0647 11.4153 19.3783 12.1369L20.1029 12.8261L20.8274 13.5153C21.1474 13.179 21.5703 13 22 13V12ZM20.1029 12.8261L19.3783 12.1369C18.6936 12.8568 18.3171 13.8229 18.3171 14.8205H19.3171H20.3171C20.3171 14.322 20.5059 13.8533 20.8274 13.5153L20.1029 12.8261ZM22 13.5385V14.5385C22.0743 14.5385 22.2195 14.6174 22.2195 14.8205H23.2195H24.2195C24.2195 13.6083 23.272 12.5385 22 12.5385V13.5385ZM24.6829 14.8205H25.6829C25.6829 13.8229 25.3064 12.8568 24.6217 12.1369L23.8971 12.8261L23.1726 13.5153C23.4941 13.8533 23.6829 14.322 23.6829 14.8205H24.6829ZM23.8971 12.8261L24.6217 12.1369C23.9353 11.4153 22.9934 11 22 11V12V13C22.4297 13 22.8526 13.179 23.1726 13.5153L23.8971 12.8261ZM30.5366 18.9231H29.5366C29.5366 18.8776 29.5533 18.8245 29.5977 18.7778L30.3223 19.467L31.0468 20.1562C31.3657 19.821 31.5366 19.3766 31.5366 18.9231H30.5366ZM30.3223 19.467L29.5977 18.7778C29.6437 18.7294 29.7171 18.6923 29.8049 18.6923V19.6923V20.6923C30.2808 20.6923 30.7264 20.4931 31.0468 20.1562L30.3223 19.467ZM29.8049 21.2308V22.2308C30.6689 22.2308 31.4867 21.8695 32.0816 21.2441L31.3571 20.5549L30.6325 19.8656C30.4041 20.1058 30.1052 20.2308 29.8049 20.2308V21.2308ZM31.3571 20.5549L32.0816 21.2441C32.6749 20.6204 33 19.7846 33 18.9231H32H31C31 19.2856 30.8626 19.6238 30.6325 19.8656L31.3571 20.5549ZM29.0732 18.9231H30.0732C30.0732 18.9686 30.0564 19.0217 30.012 19.0684L29.2875 18.3791L28.5629 17.6899C28.2441 18.0251 28.0732 18.4695 28.0732 18.9231H29.0732ZM29.2875 18.3791L30.012 19.0684C29.966 19.1167 29.8926 19.1538 29.8049 19.1538V18.1538V17.1538C29.329 17.1538 28.8834 17.353 28.5629 17.6899L29.2875 18.3791ZM29.8049 16.6154V15.6154C28.9409 15.6154 28.123 15.9767 27.5281 16.6021L28.2527 17.2913L28.9773 17.9805C29.2057 17.7404 29.5045 17.6154 29.8049 17.6154V16.6154ZM28.2527 17.2913L27.5281 16.6021C26.9348 17.2258 26.6098 18.0615 26.6098 18.9231H27.6098H28.6098C28.6098 18.5606 28.7472 18.2223 28.9773 17.9805L28.2527 17.2913ZM29.8049 18.1538V19.1538C29.7171 19.1538 29.6437 19.1167 29.5977 19.0684L30.3223 18.3791L31.0468 17.6899C30.7264 17.353 30.2808 17.1538 29.8049 17.1538V18.1538ZM30.3223 18.3791L29.5977 19.0684C29.5533 19.0217 29.5366 18.9686 29.5366 18.9231H30.5366H31.5366C31.5366 18.4695 31.3657 18.0251 31.0468 17.6899L30.3223 18.3791ZM32 18.9231H33C33 18.0615 32.6749 17.2258 32.0816 16.6021L31.3571 17.2913L30.6325 17.9805C30.8626 18.2223 31 18.5606 31 18.9231H32ZM31.3571 17.2913L32.0816 16.6021C31.4867 15.9767 30.6689 15.6154 29.8049 15.6154V16.6154V17.6154C30.1052 17.6154 30.4041 17.7404 30.6325 17.9805L31.3571 17.2913ZM14.1951 19.6923V18.6923C14.2829 18.6923 14.3563 18.7294 14.4023 18.7778L13.6777 19.467L12.9532 20.1562C13.2736 20.4931 13.7192 20.6923 14.1951 20.6923V19.6923ZM13.6777 19.467L14.4023 18.7778C14.4467 18.8245 14.4634 18.8776 14.4634 18.9231H13.4634H12.4634C12.4634 19.3766 12.6343 19.821 12.9532 20.1562L13.6777 19.467ZM12 18.9231H11C11 19.7846 11.3251 20.6204 11.9184 21.2441L12.6429 20.5549L13.3675 19.8656C13.1374 19.6238 13 19.2856 13 18.9231H12ZM12.6429 20.5549L11.9184 21.2441C12.5133 21.8695 13.3311 22.2308 14.1951 22.2308V21.2308V20.2308C13.8948 20.2308 13.5959 20.1058 13.3675 19.8656L12.6429 20.5549ZM13.4634 18.9231H14.4634C14.4634 18.9686 14.4467 19.0217 14.4023 19.0684L13.6777 18.3791L12.9532 17.6899C12.6343 18.0251 12.4634 18.4695 12.4634 18.9231H13.4634ZM13.6777 18.3791L14.4023 19.0684C14.3563 19.1167 14.2829 19.1538 14.1951 19.1538V18.1538V17.1538C13.7192 17.1538 13.2736 17.353 12.9532 17.6899L13.6777 18.3791ZM14.1951 16.6154V15.6154C13.3311 15.6154 12.5133 15.9767 11.9184 16.6021L12.6429 17.2913L13.3675 17.9805C13.5959 17.7404 13.8948 17.6154 14.1951 17.6154V16.6154ZM12.6429 17.2913L11.9184 16.6021C11.3251 17.2258 11 18.0615 11 18.9231H12H13C13 18.5606 13.1374 18.2223 13.3675 17.9805L12.6429 17.2913ZM14.1951 18.1538V19.1538C14.1074 19.1538 14.034 19.1167 13.988 19.0684L14.7125 18.3791L15.4371 17.6899C15.1166 17.353 14.671 17.1538 14.1951 17.1538V18.1538ZM14.7125 18.3791L13.988 19.0684C13.9436 19.0217 13.9268 18.9686 13.9268 18.9231H14.9268H15.9268C15.9268 18.4695 15.7559 18.0251 15.4371 17.6899L14.7125 18.3791ZM16.3902 18.9231H17.3902C17.3902 18.0615 17.0652 17.2258 16.4719 16.6021L15.7473 17.2913L15.0227 17.9805C15.2528 18.2223 15.3902 18.5606 15.3902 18.9231H16.3902ZM15.7473 17.2913L16.4719 16.6021C15.877 15.9767 15.0591 15.6154 14.1951 15.6154V16.6154V17.6154C14.4955 17.6154 14.7943 17.7404 15.0227 17.9805L15.7473 17.2913ZM29.8049 19.6923V18.6923H29.7961V19.6923V20.6923H29.8049V19.6923ZM29.7795 21.2308V22.2308H29.8049V21.2308V20.2308H29.7795V21.2308ZM29.7961 19.6923L29.8085 18.6924C29.8543 18.693 29.8977 18.7038 29.9354 18.7223L29.4961 19.6206L29.0569 20.519C29.2826 20.6294 29.5305 20.6891 29.7837 20.6922L29.7961 19.6923ZM29.4961 19.6206L29.9354 18.7223C29.9729 18.7406 30.0023 18.7652 30.0237 18.7912L29.2507 19.4256L28.4777 20.0601C28.6346 20.2512 28.8313 20.4087 29.0569 20.519L29.4961 19.6206ZM28.1434 20.4308L27.3708 21.0656C27.9393 21.7575 28.7951 22.2185 29.767 22.2307L29.7795 21.2308L29.792 20.2308C29.4547 20.2266 29.1397 20.0681 28.916 19.7959L28.1434 20.4308ZM29.2507 19.4256L30.0207 18.7876C30.0586 18.8333 30.0734 18.8835 30.0732 18.9282L29.0732 18.9231L28.0732 18.918C28.0711 19.3319 28.2122 19.7396 28.4807 20.0637L29.2507 19.4256ZM27.6098 18.9231H26.6098C26.6098 19.7342 26.8947 20.4857 27.3705 21.0652L28.1434 20.4308L28.9164 19.7963C28.7287 19.5677 28.6098 19.2628 28.6098 18.9231H27.6098ZM27.8537 21.7713L28.5772 22.4616C28.9097 22.1131 29.1483 21.8652 29.3303 21.6867C29.5224 21.4983 29.6038 21.4355 29.6274 21.42L29.081 20.5826L28.5345 19.7451C28.3318 19.8774 28.1298 20.0627 27.93 20.2587C27.72 20.4646 27.4581 20.7372 27.1301 21.081L27.8537 21.7713ZM29.081 20.5826L29.9435 20.0765L29.1757 18.7678L28.3132 19.2738L27.4507 19.7799L28.2185 21.0886L29.081 20.5826ZM28.3132 19.2738L27.7677 18.4357C27.2348 18.7825 26.645 19.4165 26.0971 19.9906L26.8205 20.681L27.5439 21.3714C28.1784 20.7066 28.5721 20.2985 28.8586 20.112L28.3132 19.2738ZM14.9268 18.9231L13.9268 18.9282C13.9266 18.8835 13.9414 18.8333 13.9793 18.7876L14.7493 19.4256L15.5193 20.0637C15.7878 19.7396 15.9289 19.3319 15.9268 18.918L14.9268 18.9231ZM15.8566 20.4308L16.6295 21.0652C17.1053 20.4857 17.3902 19.7342 17.3902 18.9231H16.3902H15.3902C15.3902 19.2628 15.2713 19.5677 15.0836 19.7963L15.8566 20.4308ZM17.1795 20.681L17.9029 19.9906C17.3562 19.4178 16.765 18.7811 16.2308 18.4347L15.6868 19.2738L15.1428 20.1129C15.4281 20.2979 15.8204 20.7053 16.4561 21.3714L17.1795 20.681ZM15.6868 19.2738L14.8243 18.7678L14.0565 20.0765L14.919 20.5826L15.7815 21.0886L16.5493 19.7799L15.6868 19.2738ZM14.919 20.5826L14.3726 21.42C14.3959 21.4352 14.4768 21.4977 14.6691 21.6865C14.8513 21.8652 15.09 22.1133 15.4233 22.4621L16.1463 21.7713L16.8694 21.0805C16.5412 20.737 16.2794 20.4645 16.0699 20.2589C15.8705 20.0633 15.6685 19.8776 15.4655 19.7451L14.919 20.5826ZM16.1463 21.7713L16.8722 22.4591L17.9054 21.3689L17.1795 20.681L16.4537 19.9932L15.4205 21.0834L16.1463 21.7713ZM14.7493 19.4256L13.9763 18.7912C13.9977 18.7652 14.0271 18.7406 14.0646 18.7223L14.5039 19.6206L14.9431 20.519C15.1687 20.4087 15.3654 20.2512 15.5223 20.0601L14.7493 19.4256ZM14.5039 19.6206L14.0646 18.7223C14.1023 18.7038 14.1457 18.693 14.1915 18.6924L14.2039 19.6923L14.2163 20.6922C14.4695 20.6891 14.7174 20.6294 14.9431 20.519L14.5039 19.6206ZM14.2205 21.2308L14.2329 22.2307C14.6934 22.225 15.1458 22.1164 15.5596 21.914L15.1203 21.0157L14.6811 20.1173C14.5307 20.1908 14.3697 20.2288 14.2081 20.2308L14.2205 21.2308ZM15.1203 21.0157L15.5596 21.914C15.9732 21.7118 16.3372 21.4214 16.6296 21.0652L15.8566 20.4308L15.0836 19.7964C14.9695 19.9354 14.8316 20.0437 14.6811 20.1173L15.1203 21.0157ZM14.2039 19.6923V18.6923H14.1951V19.6923V20.6923H14.2039V19.6923ZM14.1951 21.2308V22.2308H14.2205V21.2308V20.2308H14.1951V21.2308ZM15.0488 22.3159L16.0429 22.2073C16.0024 21.8371 15.968 21.4663 15.9395 21.0949L14.9424 21.1713L13.9454 21.2477C13.9755 21.6406 14.0119 22.0329 14.0547 22.4245L15.0488 22.3159ZM14.9424 21.1713L15.9372 21.0694C15.923 20.9301 15.9218 20.7896 15.9339 20.65L14.9376 20.5641L13.9413 20.4782C13.9184 20.7428 13.9206 21.009 13.9476 21.2732L14.9424 21.1713ZM14.9376 20.5641L15.0776 19.574L13.6268 19.3688L13.4868 20.359L13.3468 21.3491L14.7976 21.5543L14.9376 20.5641ZM13.4868 20.359L12.4916 20.2619C12.4557 20.6298 12.4541 21.0004 12.4869 21.3687L13.4829 21.28L14.479 21.1913C14.4572 20.9467 14.4583 20.7005 14.4821 20.4561L13.4868 20.359ZM13.4829 21.28L12.4851 21.3466C12.509 21.7047 12.5521 22.1259 12.5995 22.583L13.5941 22.48L14.5888 22.377C14.5406 21.9111 14.5017 21.5281 14.4807 21.2134L13.4829 21.28ZM23.2195 14.8205H22.2195C22.2195 14.9548 22.1481 15.0465 22.0799 15.0832L22.5532 15.9641L23.0265 16.845C23.7523 16.455 24.2195 15.6811 24.2195 14.8205H23.2195ZM22.5532 15.9641L21.6534 16.4004L22.3178 17.7706L23.2176 17.3344L24.1174 16.8981L23.453 15.5278L22.5532 15.9641ZM23.2176 17.3344L23.6896 18.216C24.2982 17.8901 24.8023 17.3974 25.1515 16.7984L24.2876 16.2947L23.4236 15.7911C23.2556 16.0794 23.019 16.3063 22.7456 16.4528L23.2176 17.3344ZM24.2876 16.2947L25.1515 16.7984C25.5005 16.1996 25.683 15.5152 25.6829 14.8203L24.6829 14.8205L23.6829 14.8207C23.683 15.1665 23.5919 15.5025 23.4236 15.7911L24.2876 16.2947ZM22.5532 15.9641L22.0836 15.0812C22.0685 15.0892 22.0549 15.0943 22.0425 15.0975C22.0303 15.1006 22.0165 15.1026 22 15.1026V16.1026V17.1026C22.3722 17.1026 22.719 17.0085 23.0227 16.847L22.5532 15.9641ZM22 17.641L21.9991 18.641C22.59 18.6416 23.1704 18.4943 23.6917 18.2143L23.2185 17.3333L22.7454 16.4524C22.5122 16.5776 22.2572 16.6413 22.0009 16.641L22 17.641ZM23.2185 17.3333L24.118 16.8963L23.4526 15.527L22.5532 15.9641L21.6537 16.4012L22.3191 17.7704L23.2185 17.3333ZM24.0537 17.241L24.9374 16.773C24.7405 16.4013 24.5472 16.0349 24.3659 15.73L23.5063 16.241L22.6468 16.752C22.7972 17.0051 22.9648 17.3217 23.1699 17.709L24.0537 17.241ZM23.5063 16.241L22.9572 15.4053L21.7162 16.2207L22.2654 17.0564L22.8145 17.8922L24.0555 17.0768L23.5063 16.241ZM22.2654 17.0564L21.4054 17.5668C21.5328 17.7814 21.6781 18.0579 21.8932 18.4613L22.7756 17.9908L23.658 17.5203C23.4575 17.1442 23.2828 16.8114 23.1253 16.546L22.2654 17.0564ZM22 16.1026V15.1026C21.9723 15.1026 21.9445 15.0961 21.9143 15.0801L21.4468 15.9641L20.9794 16.8481C21.2789 17.0065 21.6257 17.1026 22 17.1026V16.1026ZM21.4468 15.9641L20.547 15.5278L19.8826 16.8981L20.7824 17.3344L21.6822 17.7706L22.3466 16.4004L21.4468 15.9641ZM20.7824 17.3344L20.3104 18.2159C20.8158 18.4866 21.392 18.641 22 18.641V17.641V16.641C21.7339 16.641 21.4807 16.5739 21.2545 16.4528L20.7824 17.3344ZM21.4468 15.9641L21.9186 15.0824C21.8857 15.0648 21.8511 15.0341 21.8241 14.9878L20.9601 15.4912L20.0961 15.9947C20.3043 16.352 20.6066 16.6487 20.975 16.8458L21.4468 15.9641ZM20.9601 15.4912L21.8241 14.9878C21.7969 14.9411 21.7804 14.8833 21.7805 14.8213L20.7805 14.8205L19.7805 14.8198C19.7802 15.2311 19.888 15.6376 20.0961 15.9947L20.9601 15.4912ZM19.3171 14.8205L18.3171 14.8207C18.3172 15.5153 18.4999 16.1995 18.8488 16.7979L19.7127 16.2942L20.5765 15.7904C20.4083 15.5019 20.3171 15.166 20.3171 14.8203L19.3171 14.8205ZM19.7127 16.2942L18.8488 16.7979C19.198 17.3967 19.702 17.8892 20.3104 18.2149L20.7824 17.3333L21.2544 16.4517C20.9811 16.3054 20.7446 16.0786 20.5765 15.7904L19.7127 16.2942ZM20.7824 17.3333L21.6821 17.7699L22.3465 16.4007L21.4468 15.9641L20.5471 15.5276L19.8828 16.8968L20.7824 17.3333ZM21.2244 17.9908L22.1087 18.4576C22.3186 18.06 22.467 17.7818 22.5936 17.5694L21.7346 17.0574L20.8756 16.5454C20.7174 16.811 20.5438 17.138 20.3401 17.5239L21.2244 17.9908ZM21.7346 17.0574L22.2842 16.222L21.0433 15.4056L20.4937 16.241L19.9441 17.0764L21.185 17.8929L21.7346 17.0574ZM20.4937 16.241L19.6341 15.73C19.4528 16.0349 19.2595 16.4013 19.0626 16.773L19.9463 17.241L20.8301 17.709C21.0352 17.3217 21.2028 17.0051 21.3532 16.752L20.4937 16.241Z" fill="white" mask="url(#path-2-inside-1_1445_1720)"/>
<path d="M15.1709 27.6411H28.8294H15.1709Z" fill="#FFCC00"/>
<path d="M15.1709 27.6411H28.8294" stroke="white" stroke-width="1.5" stroke-linecap="round"/>
<defs>
<linearGradient id="paint0_linear_1445_1720" x1="44" y1="8.5" x2="7.55895e-07" y2="32.5" gradientUnits="userSpaceOnUse">
<stop stop-color="#4D8E6A"/>
<stop offset="1" stop-color="#74BA93"/>
</linearGradient>
</defs>
</svg>
