<svg width="22" height="22" viewBox="0 0 22 22" fill="none" xmlns="http://www.w3.org/2000/svg">
<path d="M19.76 6.38363V14.74C19.76 16.2676 19.1531 17.7327 18.0729 18.8129C16.9927 19.8931 15.5276 20.5 14 20.5H7.76C6.23235 20.5 4.76727 19.8931 3.68707 18.8129C2.60686 17.7327 2 16.2676 2 14.74V8.49999C2 6.97234 2.60686 5.50726 3.68707 4.42705C4.76727 3.34685 6.23235 2.73999 7.76 2.73999H16.6401" stroke="#555555" stroke-width="1.5" stroke-linecap="round"/>
<path d="M7.30493 15.4946V11.2821V15.4946ZM10.9817 15.4946V8.51825V15.4946ZM14.455 15.4946V10.205V15.4946Z" fill="black"/>
<path d="M7.30493 15.4946V11.2821M10.9817 15.4946V8.51825M14.455 15.4946V10.205" stroke="#555555" stroke-width="1.5" stroke-linecap="round"/>
<path d="M17.6002 7.3C18.9257 7.3 20.0002 6.22548 20.0002 4.9C20.0002 3.57452 18.9257 2.5 17.6002 2.5C16.2747 2.5 15.2002 3.57452 15.2002 4.9C15.2002 6.22548 16.2747 7.3 17.6002 7.3Z" fill="#555555" stroke="white" stroke-width="1.5"/>
</svg>
