<svg width="24" height="24" viewBox="0 0 24 24" fill="none" xmlns="http://www.w3.org/2000/svg">
<path d="M13.4983 18.7499C13.1533 18.8399 12.7713 18.9999 12.3983 18.9999C11.861 18.9995 11.3285 18.8985 10.8283 18.7019L6.99834 20.9999V17.8659C6.60699 17.7754 6.24112 17.5977 5.92802 17.3461C5.61493 17.0945 5.36269 16.7754 5.19013 16.4127C5.01756 16.05 4.92912 15.653 4.93141 15.2513C4.9337 14.8496 5.02666 14.4536 5.20334 14.0929C4.2486 13.5437 3.51179 12.6828 3.11655 11.6547C2.72131 10.6266 2.69168 9.4938 3.03263 8.44644C3.37358 7.39908 4.06437 6.50084 4.9891 5.90243C5.91383 5.30402 7.01623 5.04185 8.11134 5.15991C8.67019 4.40495 9.41844 3.81091 10.2805 3.43786C11.1425 3.0648 12.0877 2.92594 13.0207 3.03532C13.9536 3.14471 14.841 3.49845 15.5934 4.0608C16.3457 4.62314 16.9363 5.37415 17.3053 6.23791C18.0728 6.33047 18.811 6.58877 19.4687 6.99493C20.1265 7.40108 20.6881 7.94537 21.1146 8.5901C21.5411 9.23482 21.8224 9.96456 21.9389 10.7288C22.0554 11.493 22.0044 12.2734 21.7893 13.0159" stroke="#C7D2FE" stroke-width="1.3" stroke-linecap="round" stroke-linejoin="round"/>
<path d="M17.3333 17.15V15.75C17.3333 15.2859 17.5089 14.8408 17.8215 14.5126C18.134 14.1844 18.558 14 19 14C19.442 14 19.866 14.1844 20.1785 14.5126C20.4911 14.8408 20.6667 15.2859 20.6667 15.75V17.15M16.6667 17.15H21.3333C21.7015 17.15 22 17.4634 22 17.85V20.3C22 20.6866 21.7015 21 21.3333 21H16.6667C16.2985 21 16 20.6866 16 20.3V17.85C16 17.4634 16.2985 17.15 16.6667 17.15Z" stroke="#C7D2FE" stroke-linecap="round" stroke-linejoin="round"/>
</svg>
