<svg width="50" height="27" viewBox="0 0 50 27" fill="none" xmlns="http://www.w3.org/2000/svg">
<g clip-path="url(#clip0_612_9373)">
<path d="M49.9004 0.0996094V26.9004H0.114258L0.0996094 0.0996094H49.9004Z" fill="white" stroke="#EC7427" stroke-width="0.2"/>
<path d="M50.0017 16.2C50.0017 16.2 37.2476 23.656 13.8906 27H50.0017V16.2Z" fill="#EC7427"/>
<path d="M3.91699 9.20477H1.85156V16.2394H3.91699C5.00879 16.2394 5.79883 15.9841 6.49609 15.4335C7.32519 14.7681 7.81152 13.7705 7.81152 12.7349C7.79883 10.6504 6.20703 9.20477 3.91699 9.20477ZM5.57519 14.4995C5.12793 14.883 4.5625 15.0624 3.64062 15.0624H3.25977V10.4074H3.6416C4.5498 10.4074 5.10254 10.5612 5.57617 10.9703C6.06348 11.3927 6.35254 12.0448 6.35254 12.7226C6.35156 13.4003 6.06152 14.0781 5.57519 14.4995Z" fill="#4A4A4A"/>
<path d="M9.86523 9.20477H8.45703V16.2394H9.86523V9.20477Z" fill="#4A4A4A"/>
<path d="M13.3115 11.9032C12.4697 11.5966 12.2197 11.3915 12.2197 11.0204C12.2197 10.5724 12.667 10.2401 13.2725 10.2401C13.6934 10.2401 14.0488 10.4062 14.4043 10.8154L15.1416 9.88133C14.5361 9.3697 13.8125 9.10107 13.0098 9.10107C11.7334 9.10107 10.7471 9.97056 10.7471 11.122C10.7471 12.094 11.208 12.5923 12.5234 13.0536C13.0762 13.2454 13.3525 13.3735 13.4971 13.4504C13.7734 13.6298 13.918 13.8851 13.918 14.1794C13.918 14.7546 13.457 15.177 12.8262 15.177C12.1553 15.177 11.6152 14.8448 11.2871 14.243L10.3789 15.1001C11.0234 16.0342 11.8135 16.4433 12.8789 16.4433C14.3398 16.4433 15.3789 15.4969 15.3789 14.1281C15.4043 12.99 14.917 12.4784 13.3115 11.9032Z" fill="#4A4A4A"/>
<path d="M15.8398 12.7349C15.8398 14.8071 17.5107 16.4056 19.6553 16.4056C20.2607 16.4056 20.7871 16.2907 21.418 15.9965V14.3847C20.8525 14.9343 20.3525 15.1517 19.7207 15.1517C18.2998 15.1517 17.2861 14.154 17.2861 12.7217C17.2861 11.3662 18.3252 10.304 19.6543 10.304C20.3252 10.304 20.8389 10.5347 21.417 11.0966V9.48482C20.7988 9.17822 20.2852 9.05008 19.6797 9.05008C17.5635 9.05103 15.8398 10.6884 15.8398 12.7349Z" fill="#4A4A4A"/>
<path d="M32.6299 13.9366L30.6953 9.20477H29.1562L32.2217 16.4179H32.9854L36.1035 9.20477H34.5771L32.6299 13.9366Z" fill="#4A4A4A"/>
<path d="M36.7461 16.2394H40.7461V15.0501H38.1543V13.1573H40.6543V11.967H38.1543V10.4074H40.7461V9.20477H36.7461V16.2394Z" fill="#4A4A4A"/>
<path d="M46.3369 11.2892C46.3369 9.9717 45.4023 9.21707 43.7715 9.21707H41.6797V16.2517H43.0879V13.425H43.2725L45.2197 16.2517H46.957L44.6807 13.2845C45.7451 13.0671 46.3369 12.3637 46.3369 11.2892ZM43.4951 12.453H43.0869V10.3172H43.5215C44.4033 10.3172 44.877 10.6751 44.877 11.3661C44.877 12.0695 44.4033 12.453 43.4951 12.453Z" fill="#4A4A4A"/>
<path d="M25.7461 16.495C27.8754 16.495 29.6016 14.8172 29.6016 12.7475C29.6016 10.6778 27.8754 9 25.7461 9C23.6168 9 21.8906 10.6778 21.8906 12.7475C21.8906 14.8172 23.6168 16.495 25.7461 16.495Z" fill="url(#paint0_linear_612_9373)"/>
<path opacity="0.65" d="M25.7461 16.495C27.8754 16.495 29.6016 14.8172 29.6016 12.7475C29.6016 10.6778 27.8754 9 25.7461 9C23.6168 9 21.8906 10.6778 21.8906 12.7475C21.8906 14.8172 23.6168 16.495 25.7461 16.495Z" fill="url(#paint1_linear_612_9373)"/>
<path d="M47.2334 9.47299C47.2334 9.34485 47.1416 9.28125 46.9961 9.28125H46.7852V9.89539H46.9434V9.65239L47.1279 9.89539H47.3125L47.1016 9.64005C47.1807 9.62677 47.2334 9.56222 47.2334 9.47299ZM46.9697 9.56222H46.9434V9.39611H46.9697C47.0488 9.39611 47.0879 9.42173 47.0879 9.47299C47.0879 9.53659 47.0488 9.56222 46.9697 9.56222Z" fill="#4A4A4A"/>
<path d="M47.0215 9.05096C46.7188 9.05096 46.4688 9.29396 46.4688 9.58822C46.4688 9.88248 46.7188 10.1255 47.0215 10.1255C47.3242 10.1255 47.5742 9.88248 47.5742 9.58822C47.5742 9.29396 47.3242 9.05096 47.0215 9.05096ZM47.0215 10.0363C46.7842 10.0363 46.5742 9.84451 46.5742 9.58822C46.5742 9.34522 46.7715 9.14019 47.0215 9.14019C47.2588 9.14019 47.4561 9.34522 47.4561 9.58822C47.4561 9.83122 47.2588 10.0363 47.0215 10.0363Z" fill="#4A4A4A"/>
</g>
<defs>
<linearGradient id="paint0_linear_612_9373" x1="27.7166" y1="15.7466" x2="25.1579" y2="11.6249" gradientUnits="userSpaceOnUse">
<stop stop-color="#F89F20"/>
<stop offset="0.2502" stop-color="#F79A20"/>
<stop offset="0.5331" stop-color="#F68D20"/>
<stop offset="0.6196" stop-color="#F58720"/>
<stop offset="0.7232" stop-color="#F48120"/>
<stop offset="1" stop-color="#F37521"/>
</linearGradient>
<linearGradient id="paint1_linear_612_9373" x1="27.2959" y1="15.692" x2="23.5734" y2="8.20652" gradientUnits="userSpaceOnUse">
<stop stop-color="#DD5819"/>
<stop offset="0.3587" stop-color="#E16F27"/>
<stop offset="0.703" stop-color="#D4602C"/>
<stop offset="0.9816" stop-color="#D05B2E"/>
</linearGradient>
<clipPath id="clip0_612_9373">
<rect width="50" height="27" fill="white"/>
</clipPath>
</defs>
</svg>
