<svg width="20" height="20" viewBox="0 0 20 20" fill="none" xmlns="http://www.w3.org/2000/svg">
<path d="M0.649902 9.64999H5.6499M0.649902 9.64999C0.649902 14.6206 4.67934 18.65 9.6499 18.65M0.649902 9.64999C0.649902 4.67943 4.67934 0.649994 9.6499 0.649994M5.6499 9.64999H13.6499M5.6499 9.64999C5.6499 14.6206 7.44076 18.65 9.6499 18.65M5.6499 9.64999C5.6499 4.67943 7.44076 0.649994 9.6499 0.649994M13.6499 9.64999H18.6499M13.6499 9.64999C13.6499 4.67943 11.859 0.649994 9.6499 0.649994M13.6499 9.64999C13.6499 14.6206 11.859 18.65 9.6499 18.65M18.6499 9.64999C18.6499 4.67943 14.6205 0.649994 9.6499 0.649994M18.6499 9.64999C18.6499 14.6206 14.6205 18.65 9.6499 18.65" stroke="#0EA5E9" stroke-width="1.3" stroke-linecap="round" stroke-linejoin="round"/>
</svg>
