<svg width="20" height="20" viewBox="0 0 20 20" fill="none" xmlns="http://www.w3.org/2000/svg">
<path d="M18.75 15.4455V9.33492C18.75 8.7464 18.7495 8.45197 18.6764 8.17812C18.6116 7.93543 18.5053 7.70577 18.3614 7.49823C18.199 7.26404 17.9732 7.06984 17.5209 6.6823L12.1208 2.05639C11.2809 1.33686 10.8609 0.977274 10.3883 0.840433C9.97184 0.719856 9.52794 0.719856 9.11147 0.840433C8.63919 0.977171 8.21983 1.33641 7.38116 2.05486L1.97937 6.6823C1.52697 7.06984 1.3013 7.26404 1.13892 7.49823C0.995016 7.70577 0.887867 7.93543 0.823093 8.17812C0.75 8.45197 0.75 8.74639 0.75 9.33492V15.4455C0.75 16.4718 0.75 16.9848 0.921271 17.3896C1.14963 17.9294 1.58736 18.3587 2.13867 18.5823C2.55216 18.75 3.07634 18.75 4.12471 18.75C5.17308 18.75 5.69784 18.75 6.11133 18.5823C6.66264 18.3587 7.10025 17.9295 7.32861 17.3897C7.49988 16.9849 7.5 16.4717 7.5 15.4454V14.3439C7.5 13.1274 8.50736 12.1411 9.75 12.1411C10.9926 12.1411 12 13.1274 12 14.3439V15.4454C12 16.4717 12 16.9849 12.1713 17.3897C12.3996 17.9295 12.8374 18.3587 13.3887 18.5823C13.8022 18.75 14.3263 18.75 15.3747 18.75C16.4231 18.75 16.9478 18.75 17.3613 18.5823C17.9126 18.3587 18.3503 17.9294 18.5786 17.3896C18.7499 16.9848 18.75 16.4718 18.75 15.4455Z" stroke="#555555" stroke-width="1.5" stroke-linecap="round" stroke-linejoin="round"/>
</svg>
