<svg width="22" height="20" viewBox="0 0 22 20" fill="none" xmlns="http://www.w3.org/2000/svg">
<path d="M0.648438 16.8504L2.44844 18.6504M3.34844 11.4504L4.24844 15.0504M4.24844 15.0504L7.84844 15.9504M4.24844 15.0504L1.54844 17.7504M15.0484 1.55039L6.04844 10.5504L6.49844 12.8004L8.74844 13.2504L17.7484 4.25039L18.6484 0.650391L15.0484 1.55039Z" stroke="#C7D2FE" stroke-width="1.3" stroke-linecap="round" stroke-linejoin="round"/>
<path d="M20.6484 16.8504L18.8484 18.6504M17.9484 11.4504L17.0484 15.0504M17.0484 15.0504L19.7484 17.7504M17.0484 15.0504L15.2484 15.5004L13.4484 15.9504M7.94844 8.65039L3.54844 4.25039L2.64844 0.650391L6.24844 1.55039L10.6484 5.95039M10.7484 11.4504L12.5484 13.2504L14.7984 12.8004L15.2484 10.5504L13.4484 8.75039" stroke="#C7D2FE" stroke-width="1.3" stroke-linecap="round" stroke-linejoin="round"/>
</svg>
