<svg width="50" height="32" viewBox="0 0 50 32" fill="none" xmlns="http://www.w3.org/2000/svg">
<g clip-path="url(#clip0_612_9396)">
<path d="M46.4744 0H3.52564C1.5816 0 0 1.57907 0 3.52V28.544C0 30.4849 1.5816 32.064 3.52564 32.064H46.4744C48.4183 32.064 50 30.4849 50 28.544V3.52C50 1.57907 48.4183 0 46.4744 0Z" fill="white"/>
<path d="M10.7944 10.8704C10.2561 10.5009 9.55349 10.3156 8.68675 10.3156H5.33124C5.06554 10.3156 4.91874 10.4483 4.89086 10.7133L3.52772 19.2561C3.51355 19.34 3.53458 19.4167 3.5906 19.4865C3.64631 19.5564 3.71637 19.5912 3.80028 19.5912H5.39413C5.67368 19.5912 5.82733 19.4588 5.85554 19.1933L6.23297 16.8903C6.24675 16.7787 6.29592 16.6879 6.37983 16.618C6.46368 16.5483 6.56855 16.5026 6.69438 16.4817C6.82022 16.461 6.93887 16.4506 7.05092 16.4506C7.16265 16.4506 7.29541 16.4576 7.44945 16.4715C7.6031 16.4854 7.70105 16.4922 7.74304 16.4922C8.94534 16.4922 9.88906 16.154 10.5743 15.4768C11.2591 14.7999 11.6019 13.8612 11.6019 12.6605C11.6019 11.837 11.3326 11.2403 10.7944 10.8701V10.8704ZM9.06432 13.4355C8.99419 13.9242 8.81265 14.2451 8.51906 14.3987C8.22541 14.5524 7.80599 14.6289 7.26079 14.6289L6.56868 14.6499L6.92528 12.4094C6.9531 12.256 7.04393 12.1792 7.19784 12.1792H7.59643C8.15541 12.1792 8.56111 12.2596 8.81278 12.4199C9.06432 12.5805 9.14823 12.9192 9.06432 13.4355Z" fill="#003087"/>
<path d="M46.2048 10.3155H44.653C44.4988 10.3155 44.4081 10.3923 44.3804 10.5459L43.0171 19.2563L42.9961 19.2981C42.9961 19.3683 43.0241 19.4342 43.0801 19.4971C43.1358 19.5597 43.206 19.5912 43.2898 19.5912H44.6741C44.9394 19.5912 45.0862 19.4589 45.1146 19.1935L46.4777 10.6296V10.6088C46.4776 10.4134 46.3864 10.3157 46.2048 10.3157V10.3155Z" fill="#009CDE"/>
<path d="M27.4558 13.687C27.4558 13.6174 27.4278 13.551 27.3721 13.4883C27.316 13.4255 27.2531 13.3939 27.1833 13.3939H25.5685C25.4144 13.3939 25.2887 13.4641 25.191 13.6033L22.968 16.8698L22.0453 13.729C21.975 13.5058 21.8214 13.3939 21.5839 13.3939H20.0108C19.9407 13.3939 19.8778 13.4254 19.8222 13.4883C19.7661 13.551 19.7383 13.6175 19.7383 13.687C19.7383 13.7152 19.8746 14.1268 20.1472 14.9224C20.4198 15.7182 20.7134 16.5767 21.028 17.498C21.3426 18.4193 21.5067 18.908 21.5208 18.9635C20.3743 20.527 19.8012 21.3647 19.8012 21.4762C19.8012 21.6578 19.8921 21.7484 20.0739 21.7484H21.6887C21.8424 21.7484 21.9682 21.6788 22.0662 21.5391L27.4141 13.8335C27.4419 13.8058 27.4558 13.7571 27.4558 13.687V13.687Z" fill="#003087"/>
<path d="M42.4927 13.3939H40.8988C40.7029 13.3939 40.5844 13.6242 40.5425 14.0849C40.1785 13.5268 39.5148 13.2473 38.55 13.2473C37.5433 13.2473 36.6868 13.6242 35.9809 14.378C35.2748 15.1319 34.9219 16.0184 34.9219 17.0373C34.9219 17.861 35.163 18.517 35.6453 19.0054C36.1276 19.4943 36.7742 19.7383 37.5854 19.7383C37.9907 19.7383 38.4032 19.6544 38.8226 19.487C39.2421 19.3195 39.5703 19.0963 39.8084 18.817C39.8084 18.831 39.7942 18.8937 39.7665 19.0053C39.7383 19.1172 39.7245 19.2011 39.7245 19.2566C39.7245 19.4802 39.8151 19.5915 39.9972 19.5915H41.4444C41.7096 19.5915 41.8637 19.4592 41.9055 19.1937L42.7654 13.7288C42.7792 13.645 42.7583 13.5684 42.7025 13.4985C42.6464 13.4289 42.5766 13.3939 42.4927 13.3939ZM39.7559 17.5188C39.3994 17.8678 38.9694 18.0423 38.4662 18.0423C38.0605 18.0423 37.7323 17.9308 37.4805 17.7073C37.2287 17.4844 37.1028 17.1773 37.1028 16.786C37.1028 16.2699 37.2776 15.8334 37.6273 15.4774C37.9764 15.1215 38.4102 14.9435 38.9275 14.9435C39.3187 14.9435 39.6438 15.0587 39.9026 15.2889C40.1611 15.5192 40.2908 15.8369 40.2908 16.2417C40.2907 16.7442 40.1124 17.17 39.7559 17.5188Z" fill="#009CDE"/>
<path d="M18.6686 13.3939H17.0748C16.8787 13.3939 16.7602 13.6242 16.7182 14.0849C16.3407 13.5268 15.6765 13.2473 14.7258 13.2473C13.7191 13.2473 12.8627 13.6242 12.1567 14.378C11.4505 15.1319 11.0977 16.0184 11.0977 17.0373C11.0977 17.861 11.3389 18.517 11.8212 19.0054C12.3036 19.4943 12.9501 19.7383 13.7611 19.7383C14.1524 19.7383 14.5581 19.6544 14.9775 19.487C15.3969 19.3195 15.7325 19.0963 15.9841 18.817C15.928 18.9844 15.9002 19.1311 15.9002 19.2566C15.9002 19.4802 15.9911 19.5915 16.1728 19.5915H17.6199C17.8853 19.5915 18.0393 19.4592 18.0813 19.1937L18.9411 13.7288C18.9549 13.645 18.9339 13.5684 18.8782 13.4985C18.8223 13.4289 18.7525 13.3939 18.6686 13.3939ZM15.9318 17.5292C15.5752 17.8717 15.138 18.0423 14.6211 18.0423C14.2153 18.0423 13.8903 17.9308 13.6458 17.7073C13.401 17.4844 13.2787 17.1773 13.2787 16.786C13.2787 16.2699 13.4534 15.8334 13.8031 15.4774C14.1524 15.1215 14.5859 14.9435 15.1034 14.9435C15.4946 14.9435 15.8197 15.0587 16.0786 15.2889C16.3371 15.5193 16.4666 15.837 16.4666 16.2418C16.4666 16.7582 16.2883 17.1876 15.9318 17.5292Z" fill="#003087"/>
<path d="M34.6187 10.8704C34.0804 10.5009 33.378 10.3156 32.5111 10.3156H29.1765C28.8967 10.3156 28.7428 10.4483 28.7151 10.7133L27.3519 19.2561C27.3378 19.34 27.3587 19.4168 27.4148 19.4865C27.4703 19.5564 27.5406 19.5912 27.6245 19.5912H29.3441C29.5119 19.5912 29.6237 19.5005 29.6797 19.319L30.0573 16.8903C30.0711 16.7787 30.1201 16.6879 30.2041 16.618C30.288 16.5483 30.3927 16.5027 30.5187 16.4817C30.6444 16.461 30.763 16.4506 30.8752 16.4506C30.9869 16.4506 31.1197 16.4576 31.2735 16.4715C31.4273 16.4854 31.5255 16.4922 31.5671 16.4922C32.7697 16.4922 33.7132 16.154 34.3984 15.4768C35.0835 14.7999 35.426 13.8612 35.426 12.6605C35.4262 11.8371 35.1569 11.2403 34.6187 10.8702V10.8704ZM32.4691 14.3149C32.1615 14.5242 31.7001 14.6289 31.085 14.6289L30.4139 14.6499L30.7704 12.4094C30.7981 12.256 30.8889 12.1792 31.043 12.1792H31.4203C31.7279 12.1792 31.9725 12.1931 32.1546 12.221C32.336 12.2491 32.5111 12.3361 32.6789 12.4827C32.8467 12.6293 32.9305 12.8422 32.9305 13.1214C32.9305 13.7076 32.7766 14.1054 32.4691 14.3149Z" fill="#009CDE"/>
</g>
<defs>
<clipPath id="clip0_612_9396">
<rect width="50" height="32" fill="white"/>
</clipPath>
</defs>
</svg>
