<svg width="20" height="20" viewBox="0 0 20 20" fill="none" xmlns="http://www.w3.org/2000/svg">
<path d="M10 1.25C9.33696 1.25 8.70107 1.51339 8.23223 1.98223C7.76339 2.45107 7.5 3.08696 7.5 3.75V16.25C7.5 16.913 7.76339 17.5489 8.23223 18.0178C8.70107 18.4866 9.33696 18.75 10 18.75C10.663 18.75 11.2989 18.4866 11.7678 18.0178C12.2366 17.5489 12.5 16.913 12.5 16.25V3.75C12.5 3.08696 12.2366 2.45107 11.7678 1.98223C11.2989 1.51339 10.663 1.25 10 1.25ZM11.25 3.75V16.25C11.25 16.5815 11.1183 16.8995 10.8839 17.1339C10.6495 17.3683 10.3315 17.5 10 17.5C9.66848 17.5 9.35054 17.3683 9.11612 17.1339C8.8817 16.8995 8.75 16.5815 8.75 16.25V3.75C8.75 3.41848 8.8817 3.10054 9.11612 2.86612C9.35054 2.6317 9.66848 2.5 10 2.5C10.3315 2.5 10.6495 2.6317 10.8839 2.86612C11.1183 3.10054 11.25 3.41848 11.25 3.75ZM3.75 8.75C3.08696 8.75 2.45107 9.01339 1.98223 9.48223C1.51339 9.95107 1.25 10.587 1.25 11.25V16.25C1.25 16.913 1.51339 17.5489 1.98223 18.0178C2.45107 18.4866 3.08696 18.75 3.75 18.75C4.41304 18.75 5.04893 18.4866 5.51777 18.0178C5.98661 17.5489 6.25 16.913 6.25 16.25V11.25C6.25 10.587 5.98661 9.95107 5.51777 9.48223C5.04893 9.01339 4.41304 8.75 3.75 8.75ZM5 16.25C5 16.5815 4.8683 16.8995 4.63388 17.1339C4.39946 17.3683 4.08152 17.5 3.75 17.5C3.41848 17.5 3.10054 17.3683 2.86612 17.1339C2.6317 16.8995 2.5 16.5815 2.5 16.25V11.25C2.5 10.9185 2.6317 10.6005 2.86612 10.3661C3.10054 10.1317 3.41848 10 3.75 10C4.08152 10 4.39946 10.1317 4.63388 10.3661C4.8683 10.6005 5 10.9185 5 11.25V16.25ZM13.75 8.75C13.75 8.08696 14.0134 7.45107 14.4822 6.98223C14.9511 6.51339 15.587 6.25 16.25 6.25C16.913 6.25 17.5489 6.51339 18.0178 6.98223C18.4866 7.45107 18.75 8.08696 18.75 8.75V16.25C18.75 16.913 18.4866 17.5489 18.0178 18.0178C17.5489 18.4866 16.913 18.75 16.25 18.75C15.587 18.75 14.9511 18.4866 14.4822 18.0178C14.0134 17.5489 13.75 16.913 13.75 16.25V8.75ZM17.5 8.75C17.5 8.41848 17.3683 8.10054 17.1339 7.86612C16.8995 7.6317 16.5815 7.5 16.25 7.5C15.9185 7.5 15.6005 7.6317 15.3661 7.86612C15.1317 8.10054 15 8.41848 15 8.75V16.25C15 16.5815 15.1317 16.8995 15.3661 17.1339C15.6005 17.3683 15.9185 17.5 16.25 17.5C16.5815 17.5 16.8995 17.3683 17.1339 17.1339C17.3683 16.8995 17.5 16.5815 17.5 16.25V8.75Z" fill="#E5E5E5"/>
</svg>
