<svg width="21" height="21" viewBox="0 0 21 21" fill="none" xmlns="http://www.w3.org/2000/svg">
<path d="M10.5 0C9.70435 0 8.94129 0.316071 8.37868 0.87868C7.81607 1.44129 7.5 2.20435 7.5 3V18C7.5 18.7956 7.81607 19.5587 8.37868 20.1213C8.94129 20.6839 9.70435 21 10.5 21C11.2956 21 12.0587 20.6839 12.6213 20.1213C13.1839 19.5587 13.5 18.7956 13.5 18V3C13.5 2.20435 13.1839 1.44129 12.6213 0.87868C12.0587 0.316071 11.2956 0 10.5 0ZM12 3V18C12 18.3978 11.842 18.7794 11.5607 19.0607C11.2794 19.342 10.8978 19.5 10.5 19.5C10.1022 19.5 9.72064 19.342 9.43934 19.0607C9.15804 18.7794 9 18.3978 9 18V3C9 2.60218 9.15804 2.22064 9.43934 1.93934C9.72064 1.65804 10.1022 1.5 10.5 1.5C10.8978 1.5 11.2794 1.65804 11.5607 1.93934C11.842 2.22064 12 2.60218 12 3ZM3 9C2.20435 9 1.44129 9.31607 0.87868 9.87868C0.316071 10.4413 0 11.2044 0 12V18C0 18.7956 0.316071 19.5587 0.87868 20.1213C1.44129 20.6839 2.20435 21 3 21C3.79565 21 4.55871 20.6839 5.12132 20.1213C5.68393 19.5587 6 18.7956 6 18V12C6 11.2044 5.68393 10.4413 5.12132 9.87868C4.55871 9.31607 3.79565 9 3 9ZM4.5 18C4.5 18.3978 4.34196 18.7794 4.06066 19.0607C3.77936 19.342 3.39782 19.5 3 19.5C2.60218 19.5 2.22064 19.342 1.93934 19.0607C1.65804 18.7794 1.5 18.3978 1.5 18V12C1.5 11.6022 1.65804 11.2206 1.93934 10.9393C2.22064 10.658 2.60218 10.5 3 10.5C3.39782 10.5 3.77936 10.658 4.06066 10.9393C4.34196 11.2206 4.5 11.6022 4.5 12V18ZM15 9C15 8.20435 15.3161 7.44129 15.8787 6.87868C16.4413 6.31607 17.2044 6 18 6C18.7956 6 19.5587 6.31607 20.1213 6.87868C20.6839 7.44129 21 8.20435 21 9V18C21 18.7956 20.6839 19.5587 20.1213 20.1213C19.5587 20.6839 18.7956 21 18 21C17.2044 21 16.4413 20.6839 15.8787 20.1213C15.3161 19.5587 15 18.7956 15 18V9ZM19.5 9C19.5 8.60218 19.342 8.22064 19.0607 7.93934C18.7794 7.65804 18.3978 7.5 18 7.5C17.6022 7.5 17.2206 7.65804 16.9393 7.93934C16.658 8.22064 16.5 8.60218 16.5 9V18C16.5 18.3978 16.658 18.7794 16.9393 19.0607C17.2206 19.342 17.6022 19.5 18 19.5C18.3978 19.5 18.7794 19.342 19.0607 19.0607C19.342 18.7794 19.5 18.3978 19.5 18V9Z" fill="#C7D2FE"/>
</svg>
