<svg width="17" height="19" viewBox="0 0 17 19" fill="none" xmlns="http://www.w3.org/2000/svg">
<path d="M5.33464 11.582C5.33464 11.582 2.41797 13.7304 2.41797 14.4987C2.41797 15.267 5.33464 17.4154 5.33464 17.4154" stroke="white" stroke-width="1.5" stroke-linecap="round" stroke-linejoin="round"/>
<path d="M2.83203 14.5H9.4987C12.2387 14.5 13.6079 14.5 14.5304 13.7433C14.6993 13.6044 14.8531 13.4506 14.992 13.2817C15.7487 12.3583 15.7487 10.99 15.7487 8.25M11.1654 6.58333C11.1654 6.58333 14.082 4.435 14.082 3.66667C14.082 2.89833 11.1654 0.75 11.1654 0.75" stroke="white" stroke-width="1.5" stroke-linecap="round" stroke-linejoin="round"/>
<path d="M13.6667 3.66797H7C4.26083 3.66797 2.89083 3.66797 1.96833 4.42464C1.79971 4.56305 1.64508 4.71768 1.50667 4.8863C0.75 5.80964 0.75 7.17797 0.75 9.91797" stroke="white" stroke-width="1.5" stroke-linecap="round" stroke-linejoin="round"/>
</svg>
