<svg width="20" height="20" viewBox="0 0 20 20" fill="none" xmlns="http://www.w3.org/2000/svg">
<path d="M8.37808 10.9101L13.2242 6.06397M18.1816 3.10645L14.091 16.401C13.7244 17.5925 13.5409 18.1885 13.2248 18.386C12.9505 18.5574 12.6109 18.586 12.3123 18.4621C11.9678 18.3192 11.6883 17.7611 11.1307 16.6458L8.5397 11.4639C8.4512 11.2869 8.40691 11.1988 8.3478 11.1221C8.29535 11.054 8.23481 10.9927 8.16676 10.9403C8.09182 10.8825 8.00517 10.8392 7.83608 10.7546L2.64224 8.15772C1.52693 7.60006 0.969228 7.32098 0.826318 6.97656C0.70238 6.67787 0.730645 6.338 0.902002 6.06375C1.09959 5.74751 1.69555 5.5638 2.88735 5.19709L16.1819 1.10645C17.1189 0.818152 17.5876 0.674119 17.904 0.790304C18.1797 0.891505 18.397 1.10861 18.4982 1.38428C18.6144 1.7006 18.4702 2.16904 18.1822 3.10506L18.1816 3.10645Z" stroke="white" stroke-width="1.5" stroke-linecap="round" stroke-linejoin="round"/>
</svg>
