<svg width="22" height="22" viewBox="0 0 22 22" fill="none" xmlns="http://www.w3.org/2000/svg">
<path d="M5.13298 18.2603L6.52994 17.1428L6.54021 17.1349C6.83145 16.9019 6.97841 16.7843 7.14237 16.7005C7.28948 16.6254 7.44634 16.5707 7.60815 16.5375C7.79054 16.5 7.98053 16.5 8.3619 16.5H16.3195C17.3443 16.5 17.8572 16.5 18.249 16.3004C18.594 16.1246 18.8746 15.8439 19.0504 15.4989C19.25 15.1071 19.25 14.5947 19.25 13.57V6.59719C19.25 5.57243 19.25 5.05929 19.0504 4.6675C18.8746 4.32254 18.5934 4.04228 18.2484 3.86651C17.8563 3.66669 17.3436 3.66669 16.3168 3.66669H5.68351C4.65675 3.66669 4.14299 3.66669 3.75081 3.86651C3.40585 4.04228 3.12559 4.32254 2.94982 4.6675C2.75 5.05967 2.75 5.57344 2.75 6.6002V17.1153C2.75 18.0922 2.75 18.5805 2.95025 18.8314C3.12441 19.0496 3.3884 19.1765 3.66756 19.1762C3.98855 19.1758 4.37015 18.8706 5.13298 18.2603Z" stroke="#555555" stroke-width="1.5" stroke-linecap="round" stroke-linejoin="round"/>
</svg>
