<svg width="50" height="29" viewBox="0 0 50 29" fill="none" xmlns="http://www.w3.org/2000/svg">
<rect y="0.624268" width="50" height="27.1883" fill="white"/>
<path fill-rule="evenodd" clip-rule="evenodd" d="M17.6899 19.0278L20.7466 9.00784H23.474L20.417 19.0278H17.6899ZM16.4706 9.0106L14.0172 13.2584C13.3928 14.371 13.0274 14.933 12.852 15.6356H12.8145C12.8581 14.7448 12.733 13.6503 12.7214 13.0318L12.4503 9.0106H7.85935L7.8125 9.28015C8.99183 9.28015 9.69128 9.86914 9.88368 11.0741L10.7786 19.0278H13.6041L19.3175 9.0106H16.4706ZM37.6803 19.0278L37.6052 17.5379L34.2 17.5351L33.503 19.0278H30.5422L35.9113 9.02686H39.5455L40.4545 19.0278H37.6803ZM37.3679 13.1173C37.3371 12.3767 37.3121 11.3718 37.3623 10.7632H37.3221C37.1563 11.2607 36.4433 12.7546 36.1297 13.4891L35.1151 15.6852H37.5062L37.3679 13.1173ZM26.3372 19.3125C24.4118 19.3125 23.1338 18.7054 22.2217 18.1638L23.5208 16.1915C24.34 16.6468 24.9829 17.1724 26.4628 17.1724C26.9382 17.1724 27.3968 17.0497 27.6574 16.6013C28.0363 15.95 27.5698 15.5989 26.5046 14.9994L25.9785 14.6593C24.3991 13.5866 23.7157 12.5674 24.4593 10.7886C24.9353 9.65085 26.1897 8.78818 28.2603 8.78818C29.6875 8.78818 31.0262 9.40225 31.8058 10.002L30.3124 11.7433C29.5511 11.1315 28.9204 10.8219 28.1985 10.8219C27.623 10.8219 27.1855 11.0427 27.0344 11.3404C26.7503 11.8999 27.1265 12.2813 27.9565 12.7934L28.5819 13.1892C30.4998 14.3917 30.9561 15.6524 30.4759 16.8306C29.6487 18.86 28.0302 19.3125 26.3372 19.3125ZM41.2665 10.3658H41.1484V9.65085H41.4212C41.595 9.65085 41.6832 9.71121 41.6832 9.85646C41.6832 9.986 41.6036 10.0397 41.4958 10.0516L41.6973 10.3658H41.5637L41.378 10.0604H41.2665V10.3658ZM41.3985 9.95982C41.4872 9.95982 41.5654 9.95127 41.5654 9.84764C41.5654 9.76138 41.4803 9.7509 41.4096 9.7509H41.2665V9.95982H41.3985ZM41.3952 10.6422C41.0215 10.6422 40.7556 10.3641 40.7556 9.9962C40.7556 9.60786 41.0506 9.35043 41.3952 9.35043C41.7353 9.35043 42.0308 9.60786 42.0308 9.9962C42.0308 10.3848 41.7353 10.6422 41.3952 10.6422ZM41.3952 9.46261C41.1135 9.46261 40.8948 9.682 40.8948 9.9962C40.8948 10.2897 41.0858 10.5298 41.3952 10.5298C41.6729 10.5298 41.8917 10.3121 41.8917 9.9962C41.8917 9.682 41.6729 9.46261 41.3952 9.46261Z" fill="#1D5B99"/>
<path fill-rule="evenodd" clip-rule="evenodd" d="M50 22.1873H0V28.125H50V22.1873Z" fill="#E7A83A"/>
<path fill-rule="evenodd" clip-rule="evenodd" d="M50 0H0V5.916H50V0ZM48.8573 27.5383H48.7251V26.8265H49.0305C49.2251 26.8265 49.3238 26.8866 49.3238 27.0312C49.3238 27.1599 49.2347 27.2134 49.114 27.2252L49.3396 27.5383H49.19L48.9821 27.234H48.8573V27.5383ZM49.0054 27.1341C49.1047 27.1341 49.1922 27.1256 49.1922 27.0221C49.1922 26.9365 49.0969 26.9261 49.0178 26.9261H48.8577V27.1341H49.0054ZM49.0017 27.8133C48.5833 27.8133 48.2857 27.5367 48.2857 27.17C48.2857 26.7836 48.6165 26.5273 49.0017 26.5273C49.3831 26.5273 49.7133 26.7836 49.7133 27.17C49.7133 27.557 49.3831 27.8133 49.0017 27.8133ZM49.0017 26.6387C48.6864 26.6387 48.4415 26.8575 48.4415 27.17C48.4415 27.4626 48.6553 27.7013 49.0017 27.7013C49.3126 27.7013 49.5575 27.4848 49.5575 27.17C49.5575 26.8575 49.3126 26.6387 49.0017 26.6387Z" fill="#1D5B99"/>
</svg>
